<mxfile host="app.diagrams.net" modified="2023-06-29T18:17:22.808Z" agent="Mozilla/5.0 (Windows NT 10.0; Win64; x64) AppleWebKit/537.36 (KHTML, like Gecko) Chrome/114.0.0.0 Safari/537.36" etag="G7C-_szHBG1_IwrQitTP" version="21.5.2" type="google">
  <diagram id="R2lEEEUBdFMjLlhIrx00" name="Page-1">
    <mxGraphModel grid="1" page="1" gridSize="10" guides="1" tooltips="1" connect="1" arrows="1" fold="1" pageScale="1" pageWidth="850" pageHeight="1100" math="0" shadow="0" extFonts="Permanent Marker^https://fonts.googleapis.com/css?family=Permanent+Marker">
      <root>
        <mxCell id="0" />
        <mxCell id="1" parent="0" />
        <mxCell id="SzDZYPlU-W_V-yQMmyp6-70" value="" style="rhombus;whiteSpace=wrap;html=1;rounded=0;shadow=0;strokeColor=default;perimeterSpacing=6;gradientColor=none;" vertex="1" parent="1">
          <mxGeometry x="-277.5" y="434.15" width="117.29" height="84.21" as="geometry" />
        </mxCell>
        <mxCell id="SzDZYPlU-W_V-yQMmyp6-42" value="" style="rounded=0;whiteSpace=wrap;html=1;" vertex="1" parent="1">
          <mxGeometry x="-40" y="440" width="130" height="72.5" as="geometry" />
        </mxCell>
        <mxCell id="SzDZYPlU-W_V-yQMmyp6-1" value="فرد ثبت‌نامی" style="rounded=0;whiteSpace=wrap;html=1;" vertex="1" parent="1">
          <mxGeometry x="-490" y="446.25" width="120" height="60" as="geometry" />
        </mxCell>
        <mxCell id="SzDZYPlU-W_V-yQMmyp6-2" value="شرکت کننده" style="rounded=0;whiteSpace=wrap;html=1;" vertex="1" parent="1">
          <mxGeometry x="-35" y="446.25" width="120" height="60" as="geometry" />
        </mxCell>
        <mxCell id="SzDZYPlU-W_V-yQMmyp6-3" value="تمرین" style="rounded=0;whiteSpace=wrap;html=1;" vertex="1" parent="1">
          <mxGeometry x="-340" y="-60" width="120" height="60" as="geometry" />
        </mxCell>
        <mxCell id="SzDZYPlU-W_V-yQMmyp6-4" value="پروژه" style="rounded=0;whiteSpace=wrap;html=1;" vertex="1" parent="1">
          <mxGeometry x="-890" y="-337.71" width="120" height="60" as="geometry" />
        </mxCell>
        <mxCell id="SzDZYPlU-W_V-yQMmyp6-5" value="آزمون" style="rounded=0;whiteSpace=wrap;html=1;" vertex="1" parent="1">
          <mxGeometry x="220" y="-40" width="120" height="60" as="geometry" />
        </mxCell>
        <mxCell id="SzDZYPlU-W_V-yQMmyp6-9" value="منتور" style="rounded=0;whiteSpace=wrap;html=1;" vertex="1" parent="1">
          <mxGeometry x="-340" y="-560" width="120" height="60" as="geometry" />
        </mxCell>
        <mxCell id="SzDZYPlU-W_V-yQMmyp6-10" value="شرکت صاحب قرارداد" style="rounded=0;whiteSpace=wrap;html=1;" vertex="1" parent="1">
          <mxGeometry x="720" y="-370" width="120" height="60" as="geometry" />
        </mxCell>
        <mxCell id="SzDZYPlU-W_V-yQMmyp6-12" value="رئیس بوتکمپ" style="rounded=0;whiteSpace=wrap;html=1;" vertex="1" parent="1">
          <mxGeometry x="110" y="-560" width="120" height="60" as="geometry" />
        </mxCell>
        <mxCell id="SzDZYPlU-W_V-yQMmyp6-19" value="&lt;u&gt;کد ملی&lt;/u&gt;" style="ellipse;whiteSpace=wrap;html=1;" vertex="1" parent="1">
          <mxGeometry x="-530.84" y="304.83" width="120" height="80" as="geometry" />
        </mxCell>
        <mxCell id="SzDZYPlU-W_V-yQMmyp6-20" value="شماره تلفن‌همراه" style="ellipse;whiteSpace=wrap;html=1;" vertex="1" parent="1">
          <mxGeometry x="-670" y="310.84000000000003" width="120" height="80" as="geometry" />
        </mxCell>
        <mxCell id="SzDZYPlU-W_V-yQMmyp6-22" value="زمان ثبت نام" style="ellipse;whiteSpace=wrap;html=1;" vertex="1" parent="1">
          <mxGeometry x="-485" y="610" width="120" height="80" as="geometry" />
        </mxCell>
        <mxCell id="SzDZYPlU-W_V-yQMmyp6-18" value="مدرک تحصیلی" style="ellipse;whiteSpace=wrap;html=1;" vertex="1" parent="1">
          <mxGeometry x="-670" y="580" width="120" height="80" as="geometry" />
        </mxCell>
        <mxCell id="SzDZYPlU-W_V-yQMmyp6-54" value="" style="endArrow=none;html=1;rounded=0;exitX=0.5;exitY=0;exitDx=0;exitDy=0;entryX=0.491;entryY=0.888;entryDx=0;entryDy=0;entryPerimeter=0;" edge="1" parent="1" source="SzDZYPlU-W_V-yQMmyp6-42" target="ijqsLMtZJYYX7BfIld0q-37">
          <mxGeometry width="50" height="50" relative="1" as="geometry">
            <mxPoint x="49.17" y="420" as="sourcePoint" />
            <mxPoint x="30" y="390" as="targetPoint" />
          </mxGeometry>
        </mxCell>
        <mxCell id="SzDZYPlU-W_V-yQMmyp6-55" value="" style="endArrow=none;html=1;rounded=0;entryX=0.5;entryY=1;entryDx=0;entryDy=0;exitX=0.502;exitY=0.099;exitDx=0;exitDy=0;exitPerimeter=0;" edge="1" parent="1" source="ijqsLMtZJYYX7BfIld0q-50" target="SzDZYPlU-W_V-yQMmyp6-3">
          <mxGeometry width="50" height="50" relative="1" as="geometry">
            <mxPoint x="-280" y="20" as="sourcePoint" />
            <mxPoint x="-190" y="290" as="targetPoint" />
          </mxGeometry>
        </mxCell>
        <mxCell id="SzDZYPlU-W_V-yQMmyp6-56" value="پذیرش" style="rhombus;whiteSpace=wrap;html=1;rounded=0;shadow=0;strokeColor=default;perimeterSpacing=6;gradientColor=none;" vertex="1" parent="1">
          <mxGeometry x="-270" y="440.8399999999999" width="102.29" height="69.16" as="geometry" />
        </mxCell>
        <mxCell id="SzDZYPlU-W_V-yQMmyp6-59" value="" style="endArrow=none;html=1;rounded=0;entryX=0;entryY=0.5;entryDx=0;entryDy=0;shape=link;" edge="1" parent="1" target="SzDZYPlU-W_V-yQMmyp6-42">
          <mxGeometry width="50" height="50" relative="1" as="geometry">
            <mxPoint x="-160" y="476" as="sourcePoint" />
            <mxPoint x="-113.86" y="445" as="targetPoint" />
          </mxGeometry>
        </mxCell>
        <mxCell id="SzDZYPlU-W_V-yQMmyp6-60" value="" style="endArrow=none;html=1;rounded=0;exitX=1;exitY=0.5;exitDx=0;exitDy=0;entryX=0.047;entryY=0.51;entryDx=0;entryDy=0;entryPerimeter=0;" edge="1" parent="1" source="SzDZYPlU-W_V-yQMmyp6-1" target="SzDZYPlU-W_V-yQMmyp6-70">
          <mxGeometry width="50" height="50" relative="1" as="geometry">
            <mxPoint x="-320" y="470" as="sourcePoint" />
            <mxPoint x="-300" y="480" as="targetPoint" />
          </mxGeometry>
        </mxCell>
        <mxCell id="SzDZYPlU-W_V-yQMmyp6-61" value="" style="endArrow=none;html=1;rounded=0;entryX=0.5;entryY=1;entryDx=0;entryDy=0;exitX=0.5;exitY=0;exitDx=0;exitDy=0;" edge="1" parent="1" source="SzDZYPlU-W_V-yQMmyp6-22" target="SzDZYPlU-W_V-yQMmyp6-1">
          <mxGeometry width="50" height="50" relative="1" as="geometry">
            <mxPoint x="-485" y="580" as="sourcePoint" />
            <mxPoint x="-435" y="530" as="targetPoint" />
          </mxGeometry>
        </mxCell>
        <mxCell id="SzDZYPlU-W_V-yQMmyp6-62" value="" style="endArrow=none;html=1;rounded=0;entryX=0;entryY=1;entryDx=0;entryDy=0;exitX=0.587;exitY=0.021;exitDx=0;exitDy=0;exitPerimeter=0;" edge="1" parent="1" source="SzDZYPlU-W_V-yQMmyp6-18" target="SzDZYPlU-W_V-yQMmyp6-1">
          <mxGeometry width="50" height="50" relative="1" as="geometry">
            <mxPoint x="-580" y="560" as="sourcePoint" />
            <mxPoint x="-530" y="510" as="targetPoint" />
          </mxGeometry>
        </mxCell>
        <mxCell id="SzDZYPlU-W_V-yQMmyp6-63" value="نام و نام‌ خانوادگی" style="ellipse;whiteSpace=wrap;html=1;" vertex="1" parent="1">
          <mxGeometry x="-770" y="430" width="120" height="80" as="geometry" />
        </mxCell>
        <mxCell id="SzDZYPlU-W_V-yQMmyp6-64" value="" style="endArrow=none;html=1;rounded=0;entryX=0;entryY=0.396;entryDx=0;entryDy=0;entryPerimeter=0;exitX=1;exitY=0.5;exitDx=0;exitDy=0;" edge="1" parent="1" source="SzDZYPlU-W_V-yQMmyp6-63" target="SzDZYPlU-W_V-yQMmyp6-1">
          <mxGeometry width="50" height="50" relative="1" as="geometry">
            <mxPoint x="-630" y="470" as="sourcePoint" />
            <mxPoint x="-550" y="430" as="targetPoint" />
          </mxGeometry>
        </mxCell>
        <mxCell id="SzDZYPlU-W_V-yQMmyp6-66" value="" style="endArrow=none;html=1;rounded=0;entryX=1;entryY=1;entryDx=0;entryDy=0;exitX=0.25;exitY=0;exitDx=0;exitDy=0;" edge="1" parent="1" source="SzDZYPlU-W_V-yQMmyp6-1" target="SzDZYPlU-W_V-yQMmyp6-20">
          <mxGeometry width="50" height="50" relative="1" as="geometry">
            <mxPoint x="-480" y="430" as="sourcePoint" />
            <mxPoint x="-550" y="410" as="targetPoint" />
          </mxGeometry>
        </mxCell>
        <mxCell id="SzDZYPlU-W_V-yQMmyp6-67" value="" style="endArrow=none;html=1;rounded=0;exitX=0.5;exitY=0;exitDx=0;exitDy=0;entryX=0.5;entryY=1;entryDx=0;entryDy=0;" edge="1" parent="1" source="SzDZYPlU-W_V-yQMmyp6-1" target="SzDZYPlU-W_V-yQMmyp6-19">
          <mxGeometry width="50" height="50" relative="1" as="geometry">
            <mxPoint x="-320" y="450" as="sourcePoint" />
            <mxPoint x="-400" y="380" as="targetPoint" />
          </mxGeometry>
        </mxCell>
        <mxCell id="SzDZYPlU-W_V-yQMmyp6-71" value="۱" style="text;html=1;strokeColor=none;fillColor=none;align=center;verticalAlign=middle;whiteSpace=wrap;rounded=0;" vertex="1" parent="1">
          <mxGeometry x="-130" y="446.25" width="42.5" height="21.25" as="geometry" />
        </mxCell>
        <mxCell id="SzDZYPlU-W_V-yQMmyp6-72" value="۱" style="text;html=1;strokeColor=none;fillColor=none;align=center;verticalAlign=middle;whiteSpace=wrap;rounded=0;" vertex="1" parent="1">
          <mxGeometry x="-340" y="450" width="42.5" height="21.25" as="geometry" />
        </mxCell>
        <mxCell id="SzDZYPlU-W_V-yQMmyp6-74" value="&lt;u&gt;کد ملی&lt;/u&gt;" style="ellipse;whiteSpace=wrap;html=1;" vertex="1" parent="1">
          <mxGeometry x="10" y="640" width="120" height="80" as="geometry" />
        </mxCell>
        <mxCell id="SzDZYPlU-W_V-yQMmyp6-75" value="" style="endArrow=none;html=1;rounded=0;entryX=0.5;entryY=1;entryDx=0;entryDy=0;exitX=0.387;exitY=-0.015;exitDx=0;exitDy=0;exitPerimeter=0;" edge="1" parent="1" source="SzDZYPlU-W_V-yQMmyp6-74" target="SzDZYPlU-W_V-yQMmyp6-42">
          <mxGeometry width="50" height="50" relative="1" as="geometry">
            <mxPoint y="610" as="sourcePoint" />
            <mxPoint x="50" y="560" as="targetPoint" />
          </mxGeometry>
        </mxCell>
        <mxCell id="SzDZYPlU-W_V-yQMmyp6-76" value="شماره تلفن‌همراه" style="ellipse;whiteSpace=wrap;html=1;" vertex="1" parent="1">
          <mxGeometry x="140" y="640" width="120" height="80" as="geometry" />
        </mxCell>
        <mxCell id="SzDZYPlU-W_V-yQMmyp6-77" value="" style="endArrow=none;html=1;rounded=0;entryX=0.819;entryY=1.023;entryDx=0;entryDy=0;entryPerimeter=0;exitX=0.5;exitY=0;exitDx=0;exitDy=0;" edge="1" parent="1" source="SzDZYPlU-W_V-yQMmyp6-76" target="SzDZYPlU-W_V-yQMmyp6-42">
          <mxGeometry width="50" height="50" relative="1" as="geometry">
            <mxPoint x="130" y="610" as="sourcePoint" />
            <mxPoint x="180" y="560" as="targetPoint" />
          </mxGeometry>
        </mxCell>
        <mxCell id="SzDZYPlU-W_V-yQMmyp6-78" value="نام و نام‌ خانوادگی" style="ellipse;whiteSpace=wrap;html=1;" vertex="1" parent="1">
          <mxGeometry x="282.29" y="640" width="120" height="80" as="geometry" />
        </mxCell>
        <mxCell id="SzDZYPlU-W_V-yQMmyp6-79" value="" style="endArrow=none;html=1;rounded=0;exitX=0;exitY=0;exitDx=0;exitDy=0;entryX=1;entryY=0.75;entryDx=0;entryDy=0;" edge="1" parent="1" source="SzDZYPlU-W_V-yQMmyp6-78" target="SzDZYPlU-W_V-yQMmyp6-42">
          <mxGeometry width="50" height="50" relative="1" as="geometry">
            <mxPoint x="-150" y="560" as="sourcePoint" />
            <mxPoint x="-100" y="510" as="targetPoint" />
          </mxGeometry>
        </mxCell>
        <mxCell id="SzDZYPlU-W_V-yQMmyp6-80" value="مدرک تحصیلی" style="ellipse;whiteSpace=wrap;html=1;" vertex="1" parent="1">
          <mxGeometry x="-130" y="640" width="120" height="80" as="geometry" />
        </mxCell>
        <mxCell id="SzDZYPlU-W_V-yQMmyp6-81" value="" style="endArrow=none;html=1;rounded=0;entryX=0.133;entryY=1.012;entryDx=0;entryDy=0;exitX=0.528;exitY=-0.054;exitDx=0;exitDy=0;exitPerimeter=0;entryPerimeter=0;" edge="1" parent="1" source="SzDZYPlU-W_V-yQMmyp6-80" target="SzDZYPlU-W_V-yQMmyp6-42">
          <mxGeometry width="50" height="50" relative="1" as="geometry">
            <mxPoint y="660" as="sourcePoint" />
            <mxPoint x="-31" y="534" as="targetPoint" />
          </mxGeometry>
        </mxCell>
        <mxCell id="SzDZYPlU-W_V-yQMmyp6-82" value="n" style="text;html=1;strokeColor=none;fillColor=none;align=center;verticalAlign=middle;whiteSpace=wrap;rounded=0;" vertex="1" parent="1">
          <mxGeometry x="-20" y="280.00000000000006" width="40" height="20" as="geometry" />
        </mxCell>
        <mxCell id="4WOXw9dbX-iEsu4_BCIR-1" value="&lt;u&gt;ساعت&lt;/u&gt;" style="ellipse;whiteSpace=wrap;html=1;" vertex="1" parent="1">
          <mxGeometry x="-147.5" y="-80" width="120" height="80" as="geometry" />
        </mxCell>
        <mxCell id="4WOXw9dbX-iEsu4_BCIR-2" value="&lt;u&gt;تاریخ&lt;/u&gt;" style="ellipse;whiteSpace=wrap;html=1;" vertex="1" parent="1">
          <mxGeometry x="-27.50000000000003" y="-80" width="120" height="80" as="geometry" />
        </mxCell>
        <mxCell id="4WOXw9dbX-iEsu4_BCIR-3" value="نمره" style="ellipse;whiteSpace=wrap;html=1;" vertex="1" parent="1">
          <mxGeometry x="-19.999999999999993" y="20" width="120" height="80" as="geometry" />
        </mxCell>
        <mxCell id="4WOXw9dbX-iEsu4_BCIR-5" value="کد شرکت کننده" style="ellipse;whiteSpace=wrap;html=1;" vertex="1" parent="1">
          <mxGeometry x="30" y="105.19" width="120" height="80" as="geometry" />
        </mxCell>
        <mxCell id="4WOXw9dbX-iEsu4_BCIR-11" value="شماره تمرین" style="ellipse;whiteSpace=wrap;html=1;" vertex="1" parent="1">
          <mxGeometry x="-125.00000000000001" y="-213.33" width="120" height="80" as="geometry" />
        </mxCell>
        <mxCell id="4WOXw9dbX-iEsu4_BCIR-12" value="زمان انتشار" style="ellipse;whiteSpace=wrap;html=1;" vertex="1" parent="1">
          <mxGeometry x="-424.57" y="-210" width="120" height="80" as="geometry" />
        </mxCell>
        <mxCell id="4WOXw9dbX-iEsu4_BCIR-13" value="مهلت ارسال" style="ellipse;whiteSpace=wrap;html=1;" vertex="1" parent="1">
          <mxGeometry x="5" y="-213.33" width="120" height="80" as="geometry" />
        </mxCell>
        <mxCell id="4WOXw9dbX-iEsu4_BCIR-14" value="موضوع" style="ellipse;whiteSpace=wrap;html=1;" vertex="1" parent="1">
          <mxGeometry x="-550" y="-210" width="120" height="80" as="geometry" />
        </mxCell>
        <mxCell id="4WOXw9dbX-iEsu4_BCIR-15" value="" style="endArrow=none;html=1;rounded=0;entryX=0;entryY=1;entryDx=0;entryDy=0;exitX=0.75;exitY=0;exitDx=0;exitDy=0;" edge="1" parent="1" source="SzDZYPlU-W_V-yQMmyp6-3" target="4WOXw9dbX-iEsu4_BCIR-11">
          <mxGeometry width="50" height="50" relative="1" as="geometry">
            <mxPoint x="-280" y="-60" as="sourcePoint" />
            <mxPoint x="-230" y="-110" as="targetPoint" />
          </mxGeometry>
        </mxCell>
        <mxCell id="4WOXw9dbX-iEsu4_BCIR-16" value="" style="endArrow=none;html=1;rounded=0;entryX=0;entryY=1;entryDx=0;entryDy=0;exitX=1;exitY=0;exitDx=0;exitDy=0;" edge="1" parent="1" source="SzDZYPlU-W_V-yQMmyp6-3" target="4WOXw9dbX-iEsu4_BCIR-13">
          <mxGeometry width="50" height="50" relative="1" as="geometry">
            <mxPoint x="-145" y="-40" as="sourcePoint" />
            <mxPoint x="-95" y="-90" as="targetPoint" />
          </mxGeometry>
        </mxCell>
        <mxCell id="4WOXw9dbX-iEsu4_BCIR-17" value="" style="endArrow=none;html=1;rounded=0;entryX=0.5;entryY=1;entryDx=0;entryDy=0;exitX=0.25;exitY=0;exitDx=0;exitDy=0;" edge="1" parent="1" source="SzDZYPlU-W_V-yQMmyp6-3" target="4WOXw9dbX-iEsu4_BCIR-12">
          <mxGeometry width="50" height="50" relative="1" as="geometry">
            <mxPoint x="-430" y="-60" as="sourcePoint" />
            <mxPoint x="-380" y="-110" as="targetPoint" />
          </mxGeometry>
        </mxCell>
        <mxCell id="4WOXw9dbX-iEsu4_BCIR-18" value="" style="endArrow=none;html=1;rounded=0;entryX=0.5;entryY=1;entryDx=0;entryDy=0;exitX=0;exitY=0;exitDx=0;exitDy=0;" edge="1" parent="1" source="SzDZYPlU-W_V-yQMmyp6-3" target="4WOXw9dbX-iEsu4_BCIR-14">
          <mxGeometry width="50" height="50" relative="1" as="geometry">
            <mxPoint x="-220" y="10" as="sourcePoint" />
            <mxPoint x="-170" y="-40" as="targetPoint" />
          </mxGeometry>
        </mxCell>
        <mxCell id="4WOXw9dbX-iEsu4_BCIR-20" value="شماره فاز" style="ellipse;whiteSpace=wrap;html=1;" vertex="1" parent="1">
          <mxGeometry x="-1070" y="-477.71" width="120" height="80" as="geometry" />
        </mxCell>
        <mxCell id="4WOXw9dbX-iEsu4_BCIR-21" value="زمان انتشار" style="ellipse;whiteSpace=wrap;html=1;" vertex="1" parent="1">
          <mxGeometry x="-1070" y="-377.71" width="120" height="80" as="geometry" />
        </mxCell>
        <mxCell id="4WOXw9dbX-iEsu4_BCIR-22" value="مهلت ارسال" style="ellipse;whiteSpace=wrap;html=1;" vertex="1" parent="1">
          <mxGeometry x="-1070" y="-277.71" width="120" height="80" as="geometry" />
        </mxCell>
        <mxCell id="4WOXw9dbX-iEsu4_BCIR-23" value="" style="endArrow=none;html=1;rounded=0;entryX=0.965;entryY=0.737;entryDx=0;entryDy=0;exitX=0;exitY=0;exitDx=0;exitDy=0;entryPerimeter=0;" edge="1" parent="1" source="SzDZYPlU-W_V-yQMmyp6-4" target="4WOXw9dbX-iEsu4_BCIR-20">
          <mxGeometry width="50" height="50" relative="1" as="geometry">
            <mxPoint x="-890" y="-207.71" as="sourcePoint" />
            <mxPoint x="-840" y="-257.71" as="targetPoint" />
          </mxGeometry>
        </mxCell>
        <mxCell id="4WOXw9dbX-iEsu4_BCIR-24" value="" style="endArrow=none;html=1;rounded=0;entryX=1;entryY=0.5;entryDx=0;entryDy=0;exitX=0;exitY=0.5;exitDx=0;exitDy=0;" edge="1" parent="1" source="SzDZYPlU-W_V-yQMmyp6-4" target="4WOXw9dbX-iEsu4_BCIR-21">
          <mxGeometry width="50" height="50" relative="1" as="geometry">
            <mxPoint x="-890" y="-147.71" as="sourcePoint" />
            <mxPoint x="-840" y="-197.71" as="targetPoint" />
          </mxGeometry>
        </mxCell>
        <mxCell id="4WOXw9dbX-iEsu4_BCIR-25" value="" style="endArrow=none;html=1;rounded=0;entryX=1;entryY=0.5;entryDx=0;entryDy=0;exitX=0;exitY=1;exitDx=0;exitDy=0;" edge="1" parent="1" source="SzDZYPlU-W_V-yQMmyp6-4" target="4WOXw9dbX-iEsu4_BCIR-22">
          <mxGeometry width="50" height="50" relative="1" as="geometry">
            <mxPoint x="-890" y="-207.71" as="sourcePoint" />
            <mxPoint x="-840" y="-257.71" as="targetPoint" />
          </mxGeometry>
        </mxCell>
        <mxCell id="4WOXw9dbX-iEsu4_BCIR-27" value="شرکت کردن" style="rhombus;whiteSpace=wrap;html=1;rounded=0;shadow=0;strokeColor=default;perimeterSpacing=6;gradientColor=none;" vertex="1" parent="1">
          <mxGeometry x="100" y="179.99999999999991" width="102.29" height="69.16" as="geometry" />
        </mxCell>
        <mxCell id="4WOXw9dbX-iEsu4_BCIR-28" value="" style="endArrow=none;html=1;rounded=0;entryX=0.52;entryY=0.892;entryDx=0;entryDy=0;entryPerimeter=0;exitX=0.75;exitY=0;exitDx=0;exitDy=0;" edge="1" parent="1" target="4WOXw9dbX-iEsu4_BCIR-27" source="SzDZYPlU-W_V-yQMmyp6-42">
          <mxGeometry width="50" height="50" relative="1" as="geometry">
            <mxPoint x="90" y="440" as="sourcePoint" />
            <mxPoint x="-90" y="190" as="targetPoint" />
          </mxGeometry>
        </mxCell>
        <mxCell id="4WOXw9dbX-iEsu4_BCIR-29" value="" style="endArrow=none;html=1;rounded=0;entryX=0.5;entryY=1;entryDx=0;entryDy=0;" edge="1" parent="1" target="SzDZYPlU-W_V-yQMmyp6-5">
          <mxGeometry width="50" height="50" relative="1" as="geometry">
            <mxPoint x="151" y="180" as="sourcePoint" />
            <mxPoint x="350" y="110" as="targetPoint" />
          </mxGeometry>
        </mxCell>
        <mxCell id="4WOXw9dbX-iEsu4_BCIR-30" value="۱" style="text;html=1;strokeColor=none;fillColor=none;align=center;verticalAlign=middle;whiteSpace=wrap;rounded=0;" vertex="1" parent="1">
          <mxGeometry x="188.75" y="78.54" width="42.5" height="21.25" as="geometry" />
        </mxCell>
        <mxCell id="4WOXw9dbX-iEsu4_BCIR-32" value="n" style="text;html=1;strokeColor=none;fillColor=none;align=center;verticalAlign=middle;whiteSpace=wrap;rounded=0;" vertex="1" parent="1">
          <mxGeometry x="85" y="310.84000000000003" width="40" height="20" as="geometry" />
        </mxCell>
        <mxCell id="4WOXw9dbX-iEsu4_BCIR-33" value="مدت زمان" style="ellipse;whiteSpace=wrap;html=1;" vertex="1" parent="1">
          <mxGeometry x="440" y="-80" width="120" height="80" as="geometry" />
        </mxCell>
        <mxCell id="4WOXw9dbX-iEsu4_BCIR-34" value="تاریخ" style="ellipse;whiteSpace=wrap;html=1;" vertex="1" parent="1">
          <mxGeometry x="220" y="-210" width="120" height="80" as="geometry" />
        </mxCell>
        <mxCell id="4WOXw9dbX-iEsu4_BCIR-35" value="تعداد سوالات" style="ellipse;whiteSpace=wrap;html=1;" vertex="1" parent="1">
          <mxGeometry x="360" y="-210" width="120" height="80" as="geometry" />
        </mxCell>
        <mxCell id="4WOXw9dbX-iEsu4_BCIR-36" value="" style="endArrow=none;html=1;rounded=0;entryX=0;entryY=0.5;entryDx=0;entryDy=0;exitX=1;exitY=0.5;exitDx=0;exitDy=0;" edge="1" parent="1" source="SzDZYPlU-W_V-yQMmyp6-5" target="4WOXw9dbX-iEsu4_BCIR-33">
          <mxGeometry width="50" height="50" relative="1" as="geometry">
            <mxPoint x="-140" y="10" as="sourcePoint" />
            <mxPoint x="-90" y="-40" as="targetPoint" />
          </mxGeometry>
        </mxCell>
        <mxCell id="4WOXw9dbX-iEsu4_BCIR-39" value="" style="endArrow=none;html=1;rounded=0;entryX=0.5;entryY=1;entryDx=0;entryDy=0;exitX=0.5;exitY=0;exitDx=0;exitDy=0;" edge="1" parent="1" source="SzDZYPlU-W_V-yQMmyp6-5" target="4WOXw9dbX-iEsu4_BCIR-34">
          <mxGeometry width="50" height="50" relative="1" as="geometry">
            <mxPoint x="-140" y="10" as="sourcePoint" />
            <mxPoint x="-90" y="-40" as="targetPoint" />
          </mxGeometry>
        </mxCell>
        <mxCell id="4WOXw9dbX-iEsu4_BCIR-40" value="" style="endArrow=none;html=1;rounded=0;entryX=0.5;entryY=1;entryDx=0;entryDy=0;exitX=1;exitY=0;exitDx=0;exitDy=0;" edge="1" parent="1" source="SzDZYPlU-W_V-yQMmyp6-5" target="4WOXw9dbX-iEsu4_BCIR-35">
          <mxGeometry width="50" height="50" relative="1" as="geometry">
            <mxPoint x="-140" y="10" as="sourcePoint" />
            <mxPoint x="-90" y="-40" as="targetPoint" />
          </mxGeometry>
        </mxCell>
        <mxCell id="4WOXw9dbX-iEsu4_BCIR-45" value="" style="endArrow=none;html=1;rounded=0;exitX=1;exitY=0.5;exitDx=0;exitDy=0;entryX=0.071;entryY=0.505;entryDx=0;entryDy=0;entryPerimeter=0;" edge="1" parent="1" source="SzDZYPlU-W_V-yQMmyp6-4" target="JPNfXNQ_HrNywoh1nVq8-1">
          <mxGeometry width="50" height="50" relative="1" as="geometry">
            <mxPoint x="-80" y="-230" as="sourcePoint" />
            <mxPoint x="-569" y="-270" as="targetPoint" />
          </mxGeometry>
        </mxCell>
        <mxCell id="4WOXw9dbX-iEsu4_BCIR-46" value="" style="endArrow=none;html=1;rounded=0;entryX=0;entryY=1;entryDx=0;entryDy=0;exitX=0.931;exitY=0.5;exitDx=0;exitDy=0;exitPerimeter=0;" edge="1" parent="1" source="JPNfXNQ_HrNywoh1nVq8-1" target="SzDZYPlU-W_V-yQMmyp6-9">
          <mxGeometry width="50" height="50" relative="1" as="geometry">
            <mxPoint x="-565.4250000000002" y="-339.43000000000006" as="sourcePoint" />
            <mxPoint x="-350" y="-460" as="targetPoint" />
          </mxGeometry>
        </mxCell>
        <mxCell id="4WOXw9dbX-iEsu4_BCIR-48" value="" style="endArrow=none;html=1;rounded=0;exitX=0.5;exitY=0.921;exitDx=0;exitDy=0;exitPerimeter=0;entryX=0.5;entryY=0;entryDx=0;entryDy=0;" edge="1" parent="1" source="JPNfXNQ_HrNywoh1nVq8-2" target="SzDZYPlU-W_V-yQMmyp6-3">
          <mxGeometry width="50" height="50" relative="1" as="geometry">
            <mxPoint x="-295.9931200000001" y="-267.9909499999999" as="sourcePoint" />
            <mxPoint x="-50" y="-370" as="targetPoint" />
          </mxGeometry>
        </mxCell>
        <mxCell id="4WOXw9dbX-iEsu4_BCIR-51" value="" style="endArrow=none;html=1;rounded=0;entryX=0.308;entryY=0.983;entryDx=0;entryDy=0;entryPerimeter=0;exitX=0.49;exitY=0.133;exitDx=0;exitDy=0;exitPerimeter=0;" edge="1" parent="1" source="JPNfXNQ_HrNywoh1nVq8-2" target="SzDZYPlU-W_V-yQMmyp6-9">
          <mxGeometry width="50" height="50" relative="1" as="geometry">
            <mxPoint x="-295" y="-370" as="sourcePoint" />
            <mxPoint x="-30" y="-280" as="targetPoint" />
          </mxGeometry>
        </mxCell>
        <mxCell id="4WOXw9dbX-iEsu4_BCIR-56" value="" style="endArrow=none;html=1;rounded=0;entryX=0.493;entryY=0.916;entryDx=0;entryDy=0;entryPerimeter=0;exitX=0.25;exitY=0;exitDx=0;exitDy=0;" edge="1" parent="1" source="SzDZYPlU-W_V-yQMmyp6-5" target="JPNfXNQ_HrNywoh1nVq8-3">
          <mxGeometry width="50" height="50" relative="1" as="geometry">
            <mxPoint x="220" y="-230" as="sourcePoint" />
            <mxPoint x="131.9778799999999" y="-277.9909499999999" as="targetPoint" />
          </mxGeometry>
        </mxCell>
        <mxCell id="4WOXw9dbX-iEsu4_BCIR-57" value="" style="endArrow=none;html=1;rounded=0;entryX=0.75;entryY=1;entryDx=0;entryDy=0;exitX=0.514;exitY=0.084;exitDx=0;exitDy=0;exitPerimeter=0;" edge="1" parent="1" source="JPNfXNQ_HrNywoh1nVq8-3" target="SzDZYPlU-W_V-yQMmyp6-9">
          <mxGeometry width="50" height="50" relative="1" as="geometry">
            <mxPoint x="47.019799999999805" y="-377.99469999999997" as="sourcePoint" />
            <mxPoint x="-30" y="-280" as="targetPoint" />
          </mxGeometry>
        </mxCell>
        <mxCell id="4WOXw9dbX-iEsu4_BCIR-59" value="۱" style="text;html=1;strokeColor=none;fillColor=none;align=center;verticalAlign=middle;whiteSpace=wrap;rounded=0;" vertex="1" parent="1">
          <mxGeometry x="-295" y="-230" width="30" height="11.25" as="geometry" />
        </mxCell>
        <mxCell id="4WOXw9dbX-iEsu4_BCIR-64" value="۱" style="text;html=1;strokeColor=none;fillColor=none;align=center;verticalAlign=middle;whiteSpace=wrap;rounded=0;" vertex="1" parent="1">
          <mxGeometry x="-697.4999999999999" y="-321.25" width="30" height="11.25" as="geometry" />
        </mxCell>
        <mxCell id="4WOXw9dbX-iEsu4_BCIR-69" value="۱" style="text;html=1;strokeColor=none;fillColor=none;align=center;verticalAlign=middle;whiteSpace=wrap;rounded=0;" vertex="1" parent="1">
          <mxGeometry x="169.14999999999998" y="-160" width="30" height="11.25" as="geometry" />
        </mxCell>
        <mxCell id="4WOXw9dbX-iEsu4_BCIR-71" value="n" style="text;html=1;strokeColor=none;fillColor=none;align=center;verticalAlign=middle;whiteSpace=wrap;rounded=0;" vertex="1" parent="1">
          <mxGeometry x="-310" y="-430" width="40" height="20" as="geometry" />
        </mxCell>
        <mxCell id="4WOXw9dbX-iEsu4_BCIR-72" value="n" style="text;html=1;strokeColor=none;fillColor=none;align=center;verticalAlign=middle;whiteSpace=wrap;rounded=0;" vertex="1" parent="1">
          <mxGeometry x="-140" y="-439.99999999999994" width="40" height="20" as="geometry" />
        </mxCell>
        <mxCell id="4WOXw9dbX-iEsu4_BCIR-77" value="n" style="text;html=1;strokeColor=none;fillColor=none;align=center;verticalAlign=middle;whiteSpace=wrap;rounded=0;" vertex="1" parent="1">
          <mxGeometry x="-450" y="-429.99999999999994" width="40" height="20" as="geometry" />
        </mxCell>
        <mxCell id="4WOXw9dbX-iEsu4_BCIR-78" value="نام و نام‌ خانوادگی" style="ellipse;whiteSpace=wrap;html=1;" vertex="1" parent="1">
          <mxGeometry x="-140" y="-720" width="120" height="80" as="geometry" />
        </mxCell>
        <mxCell id="4WOXw9dbX-iEsu4_BCIR-79" value="مدرک تحصیلی" style="ellipse;whiteSpace=wrap;html=1;" vertex="1" parent="1">
          <mxGeometry x="-270.00000000000006" y="-720" width="120" height="80" as="geometry" />
        </mxCell>
        <mxCell id="4WOXw9dbX-iEsu4_BCIR-80" value="شماره تلفن همراه" style="ellipse;whiteSpace=wrap;html=1;" vertex="1" parent="1">
          <mxGeometry x="-397.5" y="-720" width="120" height="80" as="geometry" />
        </mxCell>
        <mxCell id="4WOXw9dbX-iEsu4_BCIR-81" value="&lt;u&gt;کد شناسه منتور&lt;br&gt;&lt;/u&gt;" style="ellipse;whiteSpace=wrap;html=1;" vertex="1" parent="1">
          <mxGeometry x="-520" y="-720" width="120" height="80" as="geometry" />
        </mxCell>
        <mxCell id="4WOXw9dbX-iEsu4_BCIR-82" value="" style="endArrow=none;html=1;rounded=0;entryX=0.742;entryY=0.927;entryDx=0;entryDy=0;exitX=0.25;exitY=0;exitDx=0;exitDy=0;entryPerimeter=0;" edge="1" parent="1" source="SzDZYPlU-W_V-yQMmyp6-9" target="4WOXw9dbX-iEsu4_BCIR-81">
          <mxGeometry width="50" height="50" relative="1" as="geometry">
            <mxPoint x="-280" y="-640" as="sourcePoint" />
            <mxPoint x="-230" y="-690" as="targetPoint" />
          </mxGeometry>
        </mxCell>
        <mxCell id="4WOXw9dbX-iEsu4_BCIR-83" value="" style="endArrow=none;html=1;rounded=0;entryX=0.5;entryY=1;entryDx=0;entryDy=0;exitX=0.405;exitY=-0.013;exitDx=0;exitDy=0;exitPerimeter=0;" edge="1" parent="1" source="SzDZYPlU-W_V-yQMmyp6-9" target="4WOXw9dbX-iEsu4_BCIR-80">
          <mxGeometry width="50" height="50" relative="1" as="geometry">
            <mxPoint x="-280" y="-640" as="sourcePoint" />
            <mxPoint x="-230" y="-690" as="targetPoint" />
          </mxGeometry>
        </mxCell>
        <mxCell id="4WOXw9dbX-iEsu4_BCIR-84" value="" style="endArrow=none;html=1;rounded=0;entryX=0.5;entryY=1;entryDx=0;entryDy=0;exitX=0.618;exitY=-0.031;exitDx=0;exitDy=0;exitPerimeter=0;" edge="1" parent="1" source="SzDZYPlU-W_V-yQMmyp6-9" target="4WOXw9dbX-iEsu4_BCIR-79">
          <mxGeometry width="50" height="50" relative="1" as="geometry">
            <mxPoint x="-280" y="-640" as="sourcePoint" />
            <mxPoint x="-230" y="-690" as="targetPoint" />
          </mxGeometry>
        </mxCell>
        <mxCell id="4WOXw9dbX-iEsu4_BCIR-85" value="" style="endArrow=none;html=1;rounded=0;entryX=0.5;entryY=1;entryDx=0;entryDy=0;exitX=1;exitY=0;exitDx=0;exitDy=0;" edge="1" parent="1" source="SzDZYPlU-W_V-yQMmyp6-9" target="4WOXw9dbX-iEsu4_BCIR-78">
          <mxGeometry width="50" height="50" relative="1" as="geometry">
            <mxPoint x="-280" y="-640" as="sourcePoint" />
            <mxPoint x="-230" y="-690" as="targetPoint" />
          </mxGeometry>
        </mxCell>
        <mxCell id="4WOXw9dbX-iEsu4_BCIR-86" value="" style="endArrow=none;html=1;rounded=0;" edge="1" parent="1">
          <mxGeometry width="50" height="50" relative="1" as="geometry">
            <mxPoint x="-147.5" as="sourcePoint" />
            <mxPoint x="92.49999999999997" as="targetPoint" />
          </mxGeometry>
        </mxCell>
        <mxCell id="4WOXw9dbX-iEsu4_BCIR-87" value="شرکت در کلاس" style="rhombus;whiteSpace=wrap;html=1;rounded=0;shadow=0;strokeColor=default;perimeterSpacing=6;gradientColor=none;" vertex="1" parent="1">
          <mxGeometry x="220" y="442.9199999999999" width="102.29" height="69.16" as="geometry" />
        </mxCell>
        <mxCell id="4WOXw9dbX-iEsu4_BCIR-90" value="" style="endArrow=none;html=1;rounded=0;exitX=1;exitY=0.5;exitDx=0;exitDy=0;entryX=0.065;entryY=0.482;entryDx=0;entryDy=0;entryPerimeter=0;" edge="1" parent="1" source="SzDZYPlU-W_V-yQMmyp6-42" target="4WOXw9dbX-iEsu4_BCIR-87">
          <mxGeometry width="50" height="50" relative="1" as="geometry">
            <mxPoint x="180" y="470" as="sourcePoint" />
            <mxPoint x="370" y="270" as="targetPoint" />
          </mxGeometry>
        </mxCell>
        <mxCell id="4WOXw9dbX-iEsu4_BCIR-91" value="استاد" style="rounded=0;whiteSpace=wrap;html=1;" vertex="1" parent="1">
          <mxGeometry x="640" y="532.9200000000001" width="120" height="60" as="geometry" />
        </mxCell>
        <mxCell id="4WOXw9dbX-iEsu4_BCIR-94" value="n" style="text;html=1;strokeColor=none;fillColor=none;align=center;verticalAlign=middle;whiteSpace=wrap;rounded=0;" vertex="1" parent="1">
          <mxGeometry x="162.29" y="446.25" width="40" height="20" as="geometry" />
        </mxCell>
        <mxCell id="4WOXw9dbX-iEsu4_BCIR-96" value="m" style="text;html=1;strokeColor=none;fillColor=none;align=center;verticalAlign=middle;whiteSpace=wrap;rounded=0;" vertex="1" parent="1">
          <mxGeometry x="330" y="442.91999999999996" width="40" height="20" as="geometry" />
        </mxCell>
        <mxCell id="4WOXw9dbX-iEsu4_BCIR-97" value="&lt;u&gt;کد شناسه استاد&lt;br&gt;&lt;/u&gt;" style="ellipse;whiteSpace=wrap;html=1;" vertex="1" parent="1">
          <mxGeometry x="830" y="430.00000000000006" width="120" height="80" as="geometry" />
        </mxCell>
        <mxCell id="4WOXw9dbX-iEsu4_BCIR-99" value="" style="endArrow=none;html=1;rounded=0;exitX=1;exitY=0;exitDx=0;exitDy=0;entryX=0;entryY=0.5;entryDx=0;entryDy=0;" edge="1" parent="1" source="4WOXw9dbX-iEsu4_BCIR-91" target="4WOXw9dbX-iEsu4_BCIR-97">
          <mxGeometry width="50" height="50" relative="1" as="geometry">
            <mxPoint x="750" y="360" as="sourcePoint" />
            <mxPoint x="800" y="310" as="targetPoint" />
          </mxGeometry>
        </mxCell>
        <mxCell id="4WOXw9dbX-iEsu4_BCIR-100" value="نام و نام‌ خانوادگی" style="ellipse;whiteSpace=wrap;html=1;" vertex="1" parent="1">
          <mxGeometry x="830" y="521.25" width="120" height="80" as="geometry" />
        </mxCell>
        <mxCell id="4WOXw9dbX-iEsu4_BCIR-101" value="شماره تلفن‌همراه" style="ellipse;whiteSpace=wrap;html=1;" vertex="1" parent="1">
          <mxGeometry x="830" y="610" width="120" height="80" as="geometry" />
        </mxCell>
        <mxCell id="4WOXw9dbX-iEsu4_BCIR-102" value="ایمیل" style="ellipse;whiteSpace=wrap;html=1;" vertex="1" parent="1">
          <mxGeometry x="830" y="710" width="120" height="80" as="geometry" />
        </mxCell>
        <mxCell id="4WOXw9dbX-iEsu4_BCIR-103" value="مدرک تحصیلی" style="ellipse;whiteSpace=wrap;html=1;" vertex="1" parent="1">
          <mxGeometry x="830" y="340" width="120" height="80" as="geometry" />
        </mxCell>
        <mxCell id="4WOXw9dbX-iEsu4_BCIR-104" value="" style="endArrow=none;html=1;rounded=0;entryX=0;entryY=0.5;entryDx=0;entryDy=0;exitX=0.75;exitY=0;exitDx=0;exitDy=0;" edge="1" parent="1" source="4WOXw9dbX-iEsu4_BCIR-91" target="4WOXw9dbX-iEsu4_BCIR-103">
          <mxGeometry width="50" height="50" relative="1" as="geometry">
            <mxPoint x="430" y="330" as="sourcePoint" />
            <mxPoint x="480" y="280" as="targetPoint" />
          </mxGeometry>
        </mxCell>
        <mxCell id="4WOXw9dbX-iEsu4_BCIR-105" value="" style="endArrow=none;html=1;rounded=0;entryX=0;entryY=0.5;entryDx=0;entryDy=0;exitX=1;exitY=0.5;exitDx=0;exitDy=0;" edge="1" parent="1" source="4WOXw9dbX-iEsu4_BCIR-91" target="4WOXw9dbX-iEsu4_BCIR-100">
          <mxGeometry width="50" height="50" relative="1" as="geometry">
            <mxPoint x="430" y="550" as="sourcePoint" />
            <mxPoint x="480" y="500" as="targetPoint" />
          </mxGeometry>
        </mxCell>
        <mxCell id="4WOXw9dbX-iEsu4_BCIR-106" value="" style="endArrow=none;html=1;rounded=0;entryX=0;entryY=0.5;entryDx=0;entryDy=0;exitX=1;exitY=1;exitDx=0;exitDy=0;" edge="1" parent="1" source="4WOXw9dbX-iEsu4_BCIR-91" target="4WOXw9dbX-iEsu4_BCIR-101">
          <mxGeometry width="50" height="50" relative="1" as="geometry">
            <mxPoint x="430" y="550" as="sourcePoint" />
            <mxPoint x="480" y="500" as="targetPoint" />
          </mxGeometry>
        </mxCell>
        <mxCell id="4WOXw9dbX-iEsu4_BCIR-107" value="" style="endArrow=none;html=1;rounded=0;entryX=0;entryY=0.5;entryDx=0;entryDy=0;exitX=0.75;exitY=1;exitDx=0;exitDy=0;" edge="1" parent="1" source="4WOXw9dbX-iEsu4_BCIR-91" target="4WOXw9dbX-iEsu4_BCIR-102">
          <mxGeometry width="50" height="50" relative="1" as="geometry">
            <mxPoint x="430" y="550" as="sourcePoint" />
            <mxPoint x="480" y="500" as="targetPoint" />
          </mxGeometry>
        </mxCell>
        <mxCell id="4WOXw9dbX-iEsu4_BCIR-108" value="ساعت شروع" style="ellipse;whiteSpace=wrap;html=1;" vertex="1" parent="1">
          <mxGeometry x="620" y="330.84000000000003" width="120" height="80" as="geometry" />
        </mxCell>
        <mxCell id="4WOXw9dbX-iEsu4_BCIR-110" value="مبحث" style="ellipse;whiteSpace=wrap;html=1;" vertex="1" parent="1">
          <mxGeometry x="558.86" y="250.84" width="120" height="80" as="geometry" />
        </mxCell>
        <mxCell id="4WOXw9dbX-iEsu4_BCIR-116" value="نظارت" style="rhombus;whiteSpace=wrap;html=1;rounded=0;shadow=0;strokeColor=default;perimeterSpacing=6;gradientColor=none;" vertex="1" parent="1">
          <mxGeometry x="-87.5" y="-564.5800000000002" width="102.29" height="69.16" as="geometry" />
        </mxCell>
        <mxCell id="4WOXw9dbX-iEsu4_BCIR-117" value="" style="endArrow=none;html=1;rounded=0;entryX=0.092;entryY=0.504;entryDx=0;entryDy=0;exitX=1;exitY=0.5;exitDx=0;exitDy=0;entryPerimeter=0;" edge="1" parent="1" source="SzDZYPlU-W_V-yQMmyp6-9" target="4WOXw9dbX-iEsu4_BCIR-116">
          <mxGeometry width="50" height="50" relative="1" as="geometry">
            <mxPoint x="220" y="-270" as="sourcePoint" />
            <mxPoint x="270" y="-320" as="targetPoint" />
          </mxGeometry>
        </mxCell>
        <mxCell id="4WOXw9dbX-iEsu4_BCIR-118" value="" style="endArrow=none;html=1;rounded=0;exitX=0;exitY=0.5;exitDx=0;exitDy=0;" edge="1" parent="1" source="SzDZYPlU-W_V-yQMmyp6-12">
          <mxGeometry width="50" height="50" relative="1" as="geometry">
            <mxPoint x="220" y="-270" as="sourcePoint" />
            <mxPoint x="10" y="-530" as="targetPoint" />
          </mxGeometry>
        </mxCell>
        <mxCell id="4WOXw9dbX-iEsu4_BCIR-119" value="n" style="text;html=1;strokeColor=none;fillColor=none;align=center;verticalAlign=middle;whiteSpace=wrap;rounded=0;rotation=1;" vertex="1" parent="1">
          <mxGeometry x="-167.71" y="-550" width="40" height="20" as="geometry" />
        </mxCell>
        <mxCell id="4WOXw9dbX-iEsu4_BCIR-120" value="۱" style="text;html=1;strokeColor=none;fillColor=none;align=center;verticalAlign=middle;whiteSpace=wrap;rounded=0;" vertex="1" parent="1">
          <mxGeometry x="49.16999999999999" y="-550" width="30" height="11.25" as="geometry" />
        </mxCell>
        <mxCell id="4WOXw9dbX-iEsu4_BCIR-121" value="شماره تلفن همراه" style="ellipse;whiteSpace=wrap;html=1;" vertex="1" parent="1">
          <mxGeometry x="150" y="-720" width="120" height="80" as="geometry" />
        </mxCell>
        <mxCell id="4WOXw9dbX-iEsu4_BCIR-122" value="مدرک تحصیلی" style="ellipse;whiteSpace=wrap;html=1;" vertex="1" parent="1">
          <mxGeometry x="279.99999999999994" y="-720" width="120" height="80" as="geometry" />
        </mxCell>
        <mxCell id="4WOXw9dbX-iEsu4_BCIR-123" value="نام و نام‌ خانوادگی" style="ellipse;whiteSpace=wrap;html=1;" vertex="1" parent="1">
          <mxGeometry x="402.29" y="-720" width="120" height="80" as="geometry" />
        </mxCell>
        <mxCell id="4WOXw9dbX-iEsu4_BCIR-124" value="&lt;u&gt;شناسه ریئس&lt;br&gt;&lt;/u&gt;" style="ellipse;whiteSpace=wrap;html=1;" vertex="1" parent="1">
          <mxGeometry x="19.999999999999957" y="-720" width="120" height="80" as="geometry" />
        </mxCell>
        <mxCell id="4WOXw9dbX-iEsu4_BCIR-125" value="" style="endArrow=none;html=1;rounded=0;entryX=0.5;entryY=1;entryDx=0;entryDy=0;exitX=0.5;exitY=0;exitDx=0;exitDy=0;" edge="1" parent="1" source="SzDZYPlU-W_V-yQMmyp6-12" target="4WOXw9dbX-iEsu4_BCIR-124">
          <mxGeometry width="50" height="50" relative="1" as="geometry">
            <mxPoint x="170" y="-600" as="sourcePoint" />
            <mxPoint x="230" y="-600" as="targetPoint" />
          </mxGeometry>
        </mxCell>
        <mxCell id="4WOXw9dbX-iEsu4_BCIR-126" value="" style="endArrow=none;html=1;rounded=0;entryX=0.5;entryY=1;entryDx=0;entryDy=0;exitX=0.75;exitY=0;exitDx=0;exitDy=0;" edge="1" parent="1" source="SzDZYPlU-W_V-yQMmyp6-12" target="4WOXw9dbX-iEsu4_BCIR-121">
          <mxGeometry width="50" height="50" relative="1" as="geometry">
            <mxPoint x="180" y="-550" as="sourcePoint" />
            <mxPoint x="230" y="-600" as="targetPoint" />
          </mxGeometry>
        </mxCell>
        <mxCell id="4WOXw9dbX-iEsu4_BCIR-127" value="" style="endArrow=none;html=1;rounded=0;entryX=0.5;entryY=1;entryDx=0;entryDy=0;exitX=1;exitY=0;exitDx=0;exitDy=0;" edge="1" parent="1" source="SzDZYPlU-W_V-yQMmyp6-12" target="4WOXw9dbX-iEsu4_BCIR-122">
          <mxGeometry width="50" height="50" relative="1" as="geometry">
            <mxPoint x="180" y="-550" as="sourcePoint" />
            <mxPoint x="230" y="-600" as="targetPoint" />
          </mxGeometry>
        </mxCell>
        <mxCell id="4WOXw9dbX-iEsu4_BCIR-128" value="" style="endArrow=none;html=1;rounded=0;entryX=0.5;entryY=1;entryDx=0;entryDy=0;exitX=1;exitY=0.5;exitDx=0;exitDy=0;" edge="1" parent="1" source="SzDZYPlU-W_V-yQMmyp6-12" target="4WOXw9dbX-iEsu4_BCIR-123">
          <mxGeometry width="50" height="50" relative="1" as="geometry">
            <mxPoint x="180" y="-550" as="sourcePoint" />
            <mxPoint x="230" y="-600" as="targetPoint" />
          </mxGeometry>
        </mxCell>
        <mxCell id="4WOXw9dbX-iEsu4_BCIR-130" value="قرار داد" style="rhombus;whiteSpace=wrap;html=1;rounded=0;shadow=0;strokeColor=default;perimeterSpacing=6;gradientColor=none;" vertex="1" parent="1">
          <mxGeometry x="411.14" y="-430.0000000000001" width="102.29" height="69.16" as="geometry" />
        </mxCell>
        <mxCell id="4WOXw9dbX-iEsu4_BCIR-131" value="" style="endArrow=none;html=1;rounded=0;entryX=1;entryY=1;entryDx=0;entryDy=0;exitX=0.092;exitY=0.534;exitDx=0;exitDy=0;exitPerimeter=0;" edge="1" parent="1" source="4WOXw9dbX-iEsu4_BCIR-130" target="SzDZYPlU-W_V-yQMmyp6-12">
          <mxGeometry width="50" height="50" relative="1" as="geometry">
            <mxPoint x="360" y="-350" as="sourcePoint" />
            <mxPoint x="200" y="-130" as="targetPoint" />
          </mxGeometry>
        </mxCell>
        <mxCell id="4WOXw9dbX-iEsu4_BCIR-132" value="" style="endArrow=none;html=1;rounded=0;entryX=0;entryY=0.5;entryDx=0;entryDy=0;exitX=0.942;exitY=0.511;exitDx=0;exitDy=0;exitPerimeter=0;" edge="1" parent="1" source="4WOXw9dbX-iEsu4_BCIR-130" target="SzDZYPlU-W_V-yQMmyp6-10">
          <mxGeometry width="50" height="50" relative="1" as="geometry">
            <mxPoint x="150" y="-80" as="sourcePoint" />
            <mxPoint x="200" y="-130" as="targetPoint" />
          </mxGeometry>
        </mxCell>
        <mxCell id="4WOXw9dbX-iEsu4_BCIR-133" value="۱" style="text;html=1;strokeColor=none;fillColor=none;align=center;verticalAlign=middle;whiteSpace=wrap;rounded=0;" vertex="1" parent="1">
          <mxGeometry x="310" y="-461.25" width="30" height="11.25" as="geometry" />
        </mxCell>
        <mxCell id="4WOXw9dbX-iEsu4_BCIR-134" value="n" style="text;html=1;strokeColor=none;fillColor=none;align=center;verticalAlign=middle;whiteSpace=wrap;rounded=0;" vertex="1" parent="1">
          <mxGeometry x="600" y="-359.99999999999994" width="40" height="20" as="geometry" />
        </mxCell>
        <mxCell id="4WOXw9dbX-iEsu4_BCIR-135" value="نمره آزمون" style="ellipse;whiteSpace=wrap;html=1;" vertex="1" parent="1">
          <mxGeometry x="-266.36" y="640" width="120" height="80" as="geometry" />
        </mxCell>
        <mxCell id="4WOXw9dbX-iEsu4_BCIR-136" value="" style="endArrow=none;html=1;rounded=0;entryX=-0.004;entryY=0.925;entryDx=0;entryDy=0;exitX=0.5;exitY=0;exitDx=0;exitDy=0;entryPerimeter=0;" edge="1" parent="1" source="4WOXw9dbX-iEsu4_BCIR-135" target="SzDZYPlU-W_V-yQMmyp6-42">
          <mxGeometry width="50" height="50" relative="1" as="geometry">
            <mxPoint x="-57" y="646" as="sourcePoint" />
            <mxPoint x="-13" y="523" as="targetPoint" />
          </mxGeometry>
        </mxCell>
        <mxCell id="4WOXw9dbX-iEsu4_BCIR-137" value="قبولی" style="rhombus;whiteSpace=wrap;html=1;rounded=0;shadow=0;strokeColor=default;perimeterSpacing=6;gradientColor=none;" vertex="1" parent="1">
          <mxGeometry x="280" y="150.83999999999992" width="102.29" height="69.16" as="geometry" />
        </mxCell>
        <mxCell id="4WOXw9dbX-iEsu4_BCIR-138" value="" style="endArrow=none;html=1;rounded=0;entryX=0.062;entryY=0.501;entryDx=0;entryDy=0;entryPerimeter=0;exitX=0.991;exitY=0.32;exitDx=0;exitDy=0;exitPerimeter=0;" edge="1" parent="1" source="SzDZYPlU-W_V-yQMmyp6-42" target="4WOXw9dbX-iEsu4_BCIR-137">
          <mxGeometry width="50" height="50" relative="1" as="geometry">
            <mxPoint x="270" y="310" as="sourcePoint" />
            <mxPoint x="320" y="260" as="targetPoint" />
          </mxGeometry>
        </mxCell>
        <mxCell id="4WOXw9dbX-iEsu4_BCIR-139" value="قبول شده" style="rounded=0;whiteSpace=wrap;html=1;" vertex="1" parent="1">
          <mxGeometry x="550" y="70" width="120" height="60" as="geometry" />
        </mxCell>
        <mxCell id="4WOXw9dbX-iEsu4_BCIR-140" value="" style="endArrow=none;html=1;rounded=0;entryX=0;entryY=0.5;entryDx=0;entryDy=0;exitX=0.927;exitY=0.5;exitDx=0;exitDy=0;exitPerimeter=0;" edge="1" parent="1" source="4WOXw9dbX-iEsu4_BCIR-137" target="4WOXw9dbX-iEsu4_BCIR-139">
          <mxGeometry width="50" height="50" relative="1" as="geometry">
            <mxPoint x="230" y="120" as="sourcePoint" />
            <mxPoint x="280" y="70" as="targetPoint" />
          </mxGeometry>
        </mxCell>
        <mxCell id="4WOXw9dbX-iEsu4_BCIR-141" value="۱" style="text;html=1;strokeColor=none;fillColor=none;align=center;verticalAlign=middle;whiteSpace=wrap;rounded=0;" vertex="1" parent="1">
          <mxGeometry x="460" y="117.91000000000003" width="30" height="11.25" as="geometry" />
        </mxCell>
        <mxCell id="4WOXw9dbX-iEsu4_BCIR-142" value="۱" style="text;html=1;strokeColor=none;fillColor=none;align=center;verticalAlign=middle;whiteSpace=wrap;rounded=0;" vertex="1" parent="1">
          <mxGeometry x="220" y="220.00000000000003" width="30" height="11.25" as="geometry" />
        </mxCell>
        <mxCell id="4WOXw9dbX-iEsu4_BCIR-143" value="مصاحبه" style="rhombus;whiteSpace=wrap;html=1;rounded=0;shadow=0;strokeColor=default;perimeterSpacing=6;gradientColor=none;" vertex="1" parent="1">
          <mxGeometry x="558.86" y="-213.33000000000004" width="102.29" height="69.16" as="geometry" />
        </mxCell>
        <mxCell id="4WOXw9dbX-iEsu4_BCIR-145" value="" style="endArrow=none;html=1;rounded=0;entryX=0.494;entryY=0.895;entryDx=0;entryDy=0;entryPerimeter=0;exitX=1;exitY=0;exitDx=0;exitDy=0;" edge="1" parent="1" source="4WOXw9dbX-iEsu4_BCIR-139" target="4WOXw9dbX-iEsu4_BCIR-143">
          <mxGeometry width="50" height="50" relative="1" as="geometry">
            <mxPoint x="690" y="50" as="sourcePoint" />
            <mxPoint x="740" as="targetPoint" />
          </mxGeometry>
        </mxCell>
        <mxCell id="4WOXw9dbX-iEsu4_BCIR-147" value="" style="endArrow=none;html=1;rounded=0;entryX=0;entryY=1;entryDx=0;entryDy=0;exitX=0.514;exitY=0.107;exitDx=0;exitDy=0;exitPerimeter=0;" edge="1" parent="1" source="4WOXw9dbX-iEsu4_BCIR-143" target="SzDZYPlU-W_V-yQMmyp6-10">
          <mxGeometry width="50" height="50" relative="1" as="geometry">
            <mxPoint x="670" y="-150" as="sourcePoint" />
            <mxPoint x="720" y="-200" as="targetPoint" />
          </mxGeometry>
        </mxCell>
        <mxCell id="4WOXw9dbX-iEsu4_BCIR-148" value="m" style="text;html=1;strokeColor=none;fillColor=none;align=center;verticalAlign=middle;whiteSpace=wrap;rounded=0;" vertex="1" parent="1">
          <mxGeometry x="630" y="-267.71" width="40" height="20" as="geometry" />
        </mxCell>
        <mxCell id="4WOXw9dbX-iEsu4_BCIR-149" value="n" style="text;html=1;strokeColor=none;fillColor=none;align=center;verticalAlign=middle;whiteSpace=wrap;rounded=0;" vertex="1" parent="1">
          <mxGeometry x="648.86" y="-29.999999999999943" width="40" height="20" as="geometry" />
        </mxCell>
        <mxCell id="4WOXw9dbX-iEsu4_BCIR-151" value="مدرک تحصیلی" style="ellipse;whiteSpace=wrap;html=1;" vertex="1" parent="1">
          <mxGeometry x="820" y="-40" width="120" height="80" as="geometry" />
        </mxCell>
        <mxCell id="4WOXw9dbX-iEsu4_BCIR-152" value="&lt;u&gt;شناسه قبول شدگان&lt;br&gt;&lt;/u&gt;" style="ellipse;whiteSpace=wrap;html=1;" vertex="1" parent="1">
          <mxGeometry x="820" y="49.16000000000005" width="120" height="80" as="geometry" />
        </mxCell>
        <mxCell id="4WOXw9dbX-iEsu4_BCIR-153" value="شماره تلفن‌همراه" style="ellipse;whiteSpace=wrap;html=1;" vertex="1" parent="1">
          <mxGeometry x="820" y="145.42" width="120" height="80" as="geometry" />
        </mxCell>
        <mxCell id="4WOXw9dbX-iEsu4_BCIR-154" value="نام و نام‌ خانوادگی" style="ellipse;whiteSpace=wrap;html=1;" vertex="1" parent="1">
          <mxGeometry x="820" y="-130" width="120" height="80" as="geometry" />
        </mxCell>
        <mxCell id="4WOXw9dbX-iEsu4_BCIR-157" value="" style="endArrow=none;html=1;rounded=0;entryX=0;entryY=0.5;entryDx=0;entryDy=0;exitX=1;exitY=0.5;exitDx=0;exitDy=0;" edge="1" parent="1" source="4WOXw9dbX-iEsu4_BCIR-139" target="4WOXw9dbX-iEsu4_BCIR-154">
          <mxGeometry width="50" height="50" relative="1" as="geometry">
            <mxPoint x="760" y="20" as="sourcePoint" />
            <mxPoint x="810" y="-30" as="targetPoint" />
          </mxGeometry>
        </mxCell>
        <mxCell id="4WOXw9dbX-iEsu4_BCIR-158" value="" style="endArrow=none;html=1;rounded=0;entryX=0;entryY=0.5;entryDx=0;entryDy=0;exitX=1;exitY=0.75;exitDx=0;exitDy=0;" edge="1" parent="1" source="4WOXw9dbX-iEsu4_BCIR-139" target="4WOXw9dbX-iEsu4_BCIR-151">
          <mxGeometry width="50" height="50" relative="1" as="geometry">
            <mxPoint x="750" y="140" as="sourcePoint" />
            <mxPoint x="800" y="90" as="targetPoint" />
          </mxGeometry>
        </mxCell>
        <mxCell id="4WOXw9dbX-iEsu4_BCIR-159" value="" style="endArrow=none;html=1;rounded=0;entryX=0;entryY=0.5;entryDx=0;entryDy=0;exitX=1;exitY=1;exitDx=0;exitDy=0;" edge="1" parent="1" source="4WOXw9dbX-iEsu4_BCIR-139" target="4WOXw9dbX-iEsu4_BCIR-152">
          <mxGeometry width="50" height="50" relative="1" as="geometry">
            <mxPoint x="720" y="170" as="sourcePoint" />
            <mxPoint x="770" y="120" as="targetPoint" />
          </mxGeometry>
        </mxCell>
        <mxCell id="4WOXw9dbX-iEsu4_BCIR-160" value="" style="endArrow=none;html=1;rounded=0;entryX=0;entryY=0.5;entryDx=0;entryDy=0;exitX=0.75;exitY=1;exitDx=0;exitDy=0;" edge="1" parent="1" source="4WOXw9dbX-iEsu4_BCIR-139" target="4WOXw9dbX-iEsu4_BCIR-153">
          <mxGeometry width="50" height="50" relative="1" as="geometry">
            <mxPoint x="690" y="210" as="sourcePoint" />
            <mxPoint x="740" y="160" as="targetPoint" />
          </mxGeometry>
        </mxCell>
        <mxCell id="4WOXw9dbX-iEsu4_BCIR-161" value="نام شرکت" style="ellipse;whiteSpace=wrap;html=1;" vertex="1" parent="1">
          <mxGeometry x="688.86" y="-520" width="120" height="80" as="geometry" />
        </mxCell>
        <mxCell id="4WOXw9dbX-iEsu4_BCIR-162" value="&lt;u&gt;کد شرکت&lt;br&gt;&lt;/u&gt;" style="ellipse;whiteSpace=wrap;html=1;" vertex="1" parent="1">
          <mxGeometry x="820" y="-519.9999999999999" width="120" height="80" as="geometry" />
        </mxCell>
        <mxCell id="4WOXw9dbX-iEsu4_BCIR-163" value="شماره تلفن ثابت" style="ellipse;whiteSpace=wrap;html=1;" vertex="1" parent="1">
          <mxGeometry x="560" y="-520" width="120" height="80" as="geometry" />
        </mxCell>
        <mxCell id="4WOXw9dbX-iEsu4_BCIR-164" value="حقوق پیشنهادی" style="ellipse;whiteSpace=wrap;html=1;" vertex="1" parent="1">
          <mxGeometry x="950" y="-520" width="120" height="80" as="geometry" />
        </mxCell>
        <mxCell id="4WOXw9dbX-iEsu4_BCIR-165" value="نوع کار" style="ellipse;whiteSpace=wrap;html=1;" vertex="1" parent="1">
          <mxGeometry x="1080" y="-520" width="120" height="80" as="geometry" />
        </mxCell>
        <mxCell id="4WOXw9dbX-iEsu4_BCIR-166" value="زمینه کار" style="ellipse;whiteSpace=wrap;html=1;" vertex="1" parent="1">
          <mxGeometry x="1080" y="-420" width="120" height="80" as="geometry" />
        </mxCell>
        <mxCell id="4WOXw9dbX-iEsu4_BCIR-168" value="" style="endArrow=none;html=1;rounded=0;entryX=0.5;entryY=1;entryDx=0;entryDy=0;exitX=0;exitY=0;exitDx=0;exitDy=0;" edge="1" parent="1" source="SzDZYPlU-W_V-yQMmyp6-10" target="4WOXw9dbX-iEsu4_BCIR-163">
          <mxGeometry width="50" height="50" relative="1" as="geometry">
            <mxPoint x="940" y="-250" as="sourcePoint" />
            <mxPoint x="990" y="-300" as="targetPoint" />
          </mxGeometry>
        </mxCell>
        <mxCell id="4WOXw9dbX-iEsu4_BCIR-169" value="" style="endArrow=none;html=1;rounded=0;entryX=0.5;entryY=1;entryDx=0;entryDy=0;exitX=0.25;exitY=0;exitDx=0;exitDy=0;" edge="1" parent="1" source="SzDZYPlU-W_V-yQMmyp6-10" target="4WOXw9dbX-iEsu4_BCIR-161">
          <mxGeometry width="50" height="50" relative="1" as="geometry">
            <mxPoint x="1080" y="-220" as="sourcePoint" />
            <mxPoint x="1130" y="-270" as="targetPoint" />
          </mxGeometry>
        </mxCell>
        <mxCell id="4WOXw9dbX-iEsu4_BCIR-170" value="" style="endArrow=none;html=1;rounded=0;entryX=0;entryY=1;entryDx=0;entryDy=0;exitX=0.5;exitY=0;exitDx=0;exitDy=0;" edge="1" parent="1" source="SzDZYPlU-W_V-yQMmyp6-10" target="4WOXw9dbX-iEsu4_BCIR-162">
          <mxGeometry width="50" height="50" relative="1" as="geometry">
            <mxPoint x="920" y="-210" as="sourcePoint" />
            <mxPoint x="970" y="-260" as="targetPoint" />
          </mxGeometry>
        </mxCell>
        <mxCell id="4WOXw9dbX-iEsu4_BCIR-171" value="" style="endArrow=none;html=1;rounded=0;entryX=0;entryY=1;entryDx=0;entryDy=0;exitX=0.75;exitY=0;exitDx=0;exitDy=0;" edge="1" parent="1" source="SzDZYPlU-W_V-yQMmyp6-10" target="4WOXw9dbX-iEsu4_BCIR-164">
          <mxGeometry width="50" height="50" relative="1" as="geometry">
            <mxPoint x="1020" y="-200" as="sourcePoint" />
            <mxPoint x="1070" y="-250" as="targetPoint" />
          </mxGeometry>
        </mxCell>
        <mxCell id="4WOXw9dbX-iEsu4_BCIR-172" value="" style="endArrow=none;html=1;rounded=0;entryX=0;entryY=1;entryDx=0;entryDy=0;exitX=1;exitY=0;exitDx=0;exitDy=0;" edge="1" parent="1" source="SzDZYPlU-W_V-yQMmyp6-10" target="4WOXw9dbX-iEsu4_BCIR-165">
          <mxGeometry width="50" height="50" relative="1" as="geometry">
            <mxPoint x="1020" y="-250" as="sourcePoint" />
            <mxPoint x="1070" y="-300" as="targetPoint" />
          </mxGeometry>
        </mxCell>
        <mxCell id="4WOXw9dbX-iEsu4_BCIR-173" value="" style="endArrow=none;html=1;rounded=0;entryX=0;entryY=0.5;entryDx=0;entryDy=0;exitX=1;exitY=0.25;exitDx=0;exitDy=0;" edge="1" parent="1" source="SzDZYPlU-W_V-yQMmyp6-10" target="4WOXw9dbX-iEsu4_BCIR-166">
          <mxGeometry width="50" height="50" relative="1" as="geometry">
            <mxPoint x="1090" y="-230" as="sourcePoint" />
            <mxPoint x="1140" y="-280" as="targetPoint" />
          </mxGeometry>
        </mxCell>
        <mxCell id="4WOXw9dbX-iEsu4_BCIR-174" value="ساعت" style="ellipse;whiteSpace=wrap;html=1;" vertex="1" parent="1">
          <mxGeometry x="760" y="-297.71" width="120" height="80" as="geometry" />
        </mxCell>
        <mxCell id="4WOXw9dbX-iEsu4_BCIR-175" value="تاریخ" style="ellipse;whiteSpace=wrap;html=1;" vertex="1" parent="1">
          <mxGeometry x="880" y="-297.71" width="120" height="80" as="geometry" />
        </mxCell>
        <mxCell id="4WOXw9dbX-iEsu4_BCIR-178" value="" style="endArrow=none;html=1;rounded=0;entryX=0;entryY=0.5;entryDx=0;entryDy=0;exitX=0.942;exitY=0.48;exitDx=0;exitDy=0;exitPerimeter=0;" edge="1" parent="1" target="4WOXw9dbX-iEsu4_BCIR-174" source="4WOXw9dbX-iEsu4_BCIR-143">
          <mxGeometry width="50" height="50" relative="1" as="geometry">
            <mxPoint x="640" y="-190" as="sourcePoint" />
            <mxPoint x="640" y="-60" as="targetPoint" />
          </mxGeometry>
        </mxCell>
        <mxCell id="4WOXw9dbX-iEsu4_BCIR-179" value="موضوع مصاحب" style="ellipse;whiteSpace=wrap;html=1;" vertex="1" parent="1">
          <mxGeometry x="740" y="-210" width="120" height="80" as="geometry" />
        </mxCell>
        <mxCell id="4WOXw9dbX-iEsu4_BCIR-180" value="" style="endArrow=none;html=1;rounded=0;entryX=0;entryY=0.5;entryDx=0;entryDy=0;exitX=0.746;exitY=0.672;exitDx=0;exitDy=0;exitPerimeter=0;" edge="1" parent="1" source="4WOXw9dbX-iEsu4_BCIR-143" target="4WOXw9dbX-iEsu4_BCIR-179">
          <mxGeometry width="50" height="50" relative="1" as="geometry">
            <mxPoint x="640" y="-110" as="sourcePoint" />
            <mxPoint x="640" y="-60" as="targetPoint" />
          </mxGeometry>
        </mxCell>
        <mxCell id="JPNfXNQ_HrNywoh1nVq8-1" value="تصحیح کردن" style="rhombus;whiteSpace=wrap;html=1;rounded=0;shadow=0;strokeColor=default;perimeterSpacing=6;gradientColor=none;" vertex="1" parent="1">
          <mxGeometry x="-601.14" y="-340.0000000000001" width="102.29" height="69.16" as="geometry" />
        </mxCell>
        <mxCell id="JPNfXNQ_HrNywoh1nVq8-2" value="تصحیح کردن" style="rhombus;whiteSpace=wrap;html=1;rounded=0;shadow=0;strokeColor=default;perimeterSpacing=6;gradientColor=none;" vertex="1" parent="1">
          <mxGeometry x="-341.15" y="-350.0000000000001" width="102.29" height="69.16" as="geometry" />
        </mxCell>
        <mxCell id="JPNfXNQ_HrNywoh1nVq8-3" value="تصحیح کردن" style="rhombus;whiteSpace=wrap;html=1;rounded=0;shadow=0;strokeColor=default;perimeterSpacing=6;gradientColor=none;" vertex="1" parent="1">
          <mxGeometry x="30" y="-360.8400000000001" width="102.29" height="69.16" as="geometry" />
        </mxCell>
        <mxCell id="JPNfXNQ_HrNywoh1nVq8-5" value="" style="endArrow=none;dashed=1;html=1;rounded=0;" edge="1" parent="1">
          <mxGeometry width="50" height="50" relative="1" as="geometry">
            <mxPoint x="54.57999999999997" y="160" as="sourcePoint" />
            <mxPoint x="125.42" y="160" as="targetPoint" />
          </mxGeometry>
        </mxCell>
        <mxCell id="ijqsLMtZJYYX7BfIld0q-1" value="کد کلاس" style="ellipse;whiteSpace=wrap;html=1;" vertex="1" parent="1">
          <mxGeometry x="220" y="310.25" width="120" height="80" as="geometry" />
        </mxCell>
        <mxCell id="ijqsLMtZJYYX7BfIld0q-2" value="کد شرکت کننده" style="ellipse;whiteSpace=wrap;html=1;" vertex="1" parent="1">
          <mxGeometry x="340" y="310.25" width="120" height="80" as="geometry" />
        </mxCell>
        <mxCell id="ijqsLMtZJYYX7BfIld0q-3" value="" style="endArrow=none;html=1;rounded=0;" edge="1" parent="1">
          <mxGeometry width="50" height="50" relative="1" as="geometry">
            <mxPoint x="220" y="390.25" as="sourcePoint" />
            <mxPoint x="460" y="390.25" as="targetPoint" />
          </mxGeometry>
        </mxCell>
        <mxCell id="ijqsLMtZJYYX7BfIld0q-4" value="کلاس" style="rounded=0;whiteSpace=wrap;html=1;" vertex="1" parent="1">
          <mxGeometry x="400" y="426.88000000000005" width="120" height="60" as="geometry" />
        </mxCell>
        <mxCell id="ijqsLMtZJYYX7BfIld0q-5" value="ساعت شروع" style="ellipse;whiteSpace=wrap;html=1;" vertex="1" parent="1">
          <mxGeometry x="620" y="416.8800000000001" width="120" height="80" as="geometry" />
        </mxCell>
        <mxCell id="ijqsLMtZJYYX7BfIld0q-6" value="تدریس" style="rhombus;whiteSpace=wrap;html=1;rounded=0;shadow=0;strokeColor=default;perimeterSpacing=6;gradientColor=none;" vertex="1" parent="1">
          <mxGeometry x="408.86" y="526.6699999999998" width="102.29" height="69.16" as="geometry" />
        </mxCell>
        <mxCell id="ijqsLMtZJYYX7BfIld0q-7" value="" style="endArrow=none;html=1;rounded=0;entryX=0;entryY=0.5;entryDx=0;entryDy=0;exitX=0.935;exitY=0.524;exitDx=0;exitDy=0;exitPerimeter=0;" edge="1" parent="1" source="4WOXw9dbX-iEsu4_BCIR-87" target="ijqsLMtZJYYX7BfIld0q-4">
          <mxGeometry width="50" height="50" relative="1" as="geometry">
            <mxPoint x="310" y="487.92" as="sourcePoint" />
            <mxPoint x="398" y="552.9200000000001" as="targetPoint" />
          </mxGeometry>
        </mxCell>
        <mxCell id="ijqsLMtZJYYX7BfIld0q-8" value="" style="endArrow=none;html=1;rounded=0;entryX=0.5;entryY=1;entryDx=0;entryDy=0;exitX=0.516;exitY=0.099;exitDx=0;exitDy=0;exitPerimeter=0;" edge="1" parent="1" source="4WOXw9dbX-iEsu4_BCIR-87" target="ijqsLMtZJYYX7BfIld0q-1">
          <mxGeometry width="50" height="50" relative="1" as="geometry">
            <mxPoint x="270" y="440" as="sourcePoint" />
            <mxPoint x="300" y="410" as="targetPoint" />
          </mxGeometry>
        </mxCell>
        <mxCell id="ijqsLMtZJYYX7BfIld0q-10" value="" style="endArrow=none;dashed=1;html=1;rounded=0;" edge="1" parent="1">
          <mxGeometry width="50" height="50" relative="1" as="geometry">
            <mxPoint x="244.57999999999998" y="360" as="sourcePoint" />
            <mxPoint x="315.42" y="360" as="targetPoint" />
          </mxGeometry>
        </mxCell>
        <mxCell id="ijqsLMtZJYYX7BfIld0q-12" value="" style="endArrow=none;dashed=1;html=1;rounded=0;" edge="1" parent="1">
          <mxGeometry width="50" height="50" relative="1" as="geometry">
            <mxPoint x="364.58" y="360" as="sourcePoint" />
            <mxPoint x="435.42" y="360" as="targetPoint" />
          </mxGeometry>
        </mxCell>
        <mxCell id="ijqsLMtZJYYX7BfIld0q-13" value="" style="endArrow=none;html=1;rounded=0;entryX=0;entryY=0.5;entryDx=0;entryDy=0;" edge="1" parent="1" target="4WOXw9dbX-iEsu4_BCIR-91">
          <mxGeometry width="50" height="50" relative="1" as="geometry">
            <mxPoint x="510" y="563" as="sourcePoint" />
            <mxPoint x="577" y="580" as="targetPoint" />
          </mxGeometry>
        </mxCell>
        <mxCell id="ijqsLMtZJYYX7BfIld0q-14" value="" style="endArrow=none;html=1;rounded=0;entryX=0.5;entryY=1;entryDx=0;entryDy=0;exitX=0.505;exitY=0.08;exitDx=0;exitDy=0;exitPerimeter=0;" edge="1" parent="1" source="ijqsLMtZJYYX7BfIld0q-6" target="ijqsLMtZJYYX7BfIld0q-4">
          <mxGeometry width="50" height="50" relative="1" as="geometry">
            <mxPoint x="375.29" y="587.92" as="sourcePoint" />
            <mxPoint x="382.29" y="532.92" as="targetPoint" />
          </mxGeometry>
        </mxCell>
        <mxCell id="ijqsLMtZJYYX7BfIld0q-15" value="" style="endArrow=none;html=1;rounded=0;entryX=0.397;entryY=1.005;entryDx=0;entryDy=0;exitX=0.75;exitY=0;exitDx=0;exitDy=0;entryPerimeter=0;" edge="1" parent="1" source="ijqsLMtZJYYX7BfIld0q-4" target="4WOXw9dbX-iEsu4_BCIR-110">
          <mxGeometry width="50" height="50" relative="1" as="geometry">
            <mxPoint x="515.29" y="415" as="sourcePoint" />
            <mxPoint x="522.29" y="360" as="targetPoint" />
          </mxGeometry>
        </mxCell>
        <mxCell id="ijqsLMtZJYYX7BfIld0q-16" value="" style="endArrow=none;html=1;rounded=0;entryX=0;entryY=1;entryDx=0;entryDy=0;exitX=1;exitY=0.25;exitDx=0;exitDy=0;" edge="1" parent="1" source="ijqsLMtZJYYX7BfIld0q-4" target="4WOXw9dbX-iEsu4_BCIR-108">
          <mxGeometry width="50" height="50" relative="1" as="geometry">
            <mxPoint x="542" y="471.25" as="sourcePoint" />
            <mxPoint x="600" y="375.25" as="targetPoint" />
          </mxGeometry>
        </mxCell>
        <mxCell id="ijqsLMtZJYYX7BfIld0q-17" value="" style="endArrow=none;html=1;rounded=0;entryX=0;entryY=0.5;entryDx=0;entryDy=0;exitX=1;exitY=0.5;exitDx=0;exitDy=0;" edge="1" parent="1" source="ijqsLMtZJYYX7BfIld0q-4" target="ijqsLMtZJYYX7BfIld0q-5">
          <mxGeometry width="50" height="50" relative="1" as="geometry">
            <mxPoint x="530" y="452" as="sourcePoint" />
            <mxPoint x="636" y="389" as="targetPoint" />
          </mxGeometry>
        </mxCell>
        <mxCell id="ijqsLMtZJYYX7BfIld0q-18" value="کد شناسه استاد" style="ellipse;whiteSpace=wrap;html=1;" vertex="1" parent="1">
          <mxGeometry x="450" y="200.00000000000006" width="120" height="80" as="geometry" />
        </mxCell>
        <mxCell id="ijqsLMtZJYYX7BfIld0q-19" value="" style="endArrow=none;html=1;rounded=0;entryX=0.5;entryY=1;entryDx=0;entryDy=0;exitX=0.5;exitY=0;exitDx=0;exitDy=0;" edge="1" parent="1" source="ijqsLMtZJYYX7BfIld0q-4" target="ijqsLMtZJYYX7BfIld0q-18">
          <mxGeometry width="50" height="50" relative="1" as="geometry">
            <mxPoint x="500" y="437" as="sourcePoint" />
            <mxPoint x="617" y="341" as="targetPoint" />
          </mxGeometry>
        </mxCell>
        <mxCell id="ijqsLMtZJYYX7BfIld0q-20" value="" style="endArrow=none;dashed=1;html=1;rounded=0;" edge="1" parent="1">
          <mxGeometry width="50" height="50" relative="1" as="geometry">
            <mxPoint x="474.58" y="249.16" as="sourcePoint" />
            <mxPoint x="545.4200000000001" y="249.16" as="targetPoint" />
          </mxGeometry>
        </mxCell>
        <mxCell id="ijqsLMtZJYYX7BfIld0q-21" value="&lt;u&gt;شناسه آزمون&lt;/u&gt;" style="ellipse;whiteSpace=wrap;html=1;" vertex="1" parent="1">
          <mxGeometry x="382.29" y="20" width="120" height="80" as="geometry" />
        </mxCell>
        <mxCell id="ijqsLMtZJYYX7BfIld0q-22" value="" style="endArrow=none;html=1;rounded=0;entryX=0.077;entryY=0.245;entryDx=0;entryDy=0;exitX=1;exitY=0.75;exitDx=0;exitDy=0;entryPerimeter=0;" edge="1" parent="1" source="SzDZYPlU-W_V-yQMmyp6-5" target="ijqsLMtZJYYX7BfIld0q-21">
          <mxGeometry width="50" height="50" relative="1" as="geometry">
            <mxPoint x="230" y="110" as="sourcePoint" />
            <mxPoint x="330" y="80" as="targetPoint" />
          </mxGeometry>
        </mxCell>
        <mxCell id="ijqsLMtZJYYX7BfIld0q-23" value="شناسه آزمون" style="ellipse;whiteSpace=wrap;html=1;" vertex="1" parent="1">
          <mxGeometry x="-349.99999999999994" y="560" width="120" height="80" as="geometry" />
        </mxCell>
        <mxCell id="ijqsLMtZJYYX7BfIld0q-25" value="" style="endArrow=none;html=1;rounded=0;entryX=0;entryY=0.75;entryDx=0;entryDy=0;exitX=1;exitY=0;exitDx=0;exitDy=0;" edge="1" parent="1" source="ijqsLMtZJYYX7BfIld0q-23" target="SzDZYPlU-W_V-yQMmyp6-42">
          <mxGeometry width="50" height="50" relative="1" as="geometry">
            <mxPoint x="-252.5" y="629.88" as="sourcePoint" />
            <mxPoint x="-87.5" y="496.88" as="targetPoint" />
          </mxGeometry>
        </mxCell>
        <mxCell id="ijqsLMtZJYYX7BfIld0q-26" value="۱" style="text;html=1;strokeColor=none;fillColor=none;align=center;verticalAlign=middle;whiteSpace=wrap;rounded=0;" vertex="1" parent="1">
          <mxGeometry x="597.5" y="539" width="42.5" height="21.25" as="geometry" />
        </mxCell>
        <mxCell id="ijqsLMtZJYYX7BfIld0q-27" value="n" style="text;html=1;strokeColor=none;fillColor=none;align=center;verticalAlign=middle;whiteSpace=wrap;rounded=0;" vertex="1" parent="1">
          <mxGeometry x="462.28999999999996" y="492.5" width="40" height="20" as="geometry" />
        </mxCell>
        <mxCell id="ijqsLMtZJYYX7BfIld0q-29" value="" style="endArrow=none;dashed=1;html=1;rounded=0;" edge="1" parent="1">
          <mxGeometry width="50" height="50" relative="1" as="geometry">
            <mxPoint x="-325.42" y="610" as="sourcePoint" />
            <mxPoint x="-254.57999999999998" y="610" as="targetPoint" />
          </mxGeometry>
        </mxCell>
        <mxCell id="ijqsLMtZJYYX7BfIld0q-30" value="" style="endArrow=none;dashed=1;html=1;rounded=0;" edge="1" parent="1">
          <mxGeometry width="50" height="50" relative="1" as="geometry">
            <mxPoint x="34.579999999999984" y="689.23" as="sourcePoint" />
            <mxPoint x="105.42000000000002" y="689.23" as="targetPoint" />
          </mxGeometry>
        </mxCell>
        <mxCell id="ijqsLMtZJYYX7BfIld0q-31" value="شناسه ریئس" style="ellipse;whiteSpace=wrap;html=1;" vertex="1" parent="1">
          <mxGeometry x="1080" y="-327.71" width="120" height="80" as="geometry" />
        </mxCell>
        <mxCell id="ijqsLMtZJYYX7BfIld0q-32" value="" style="endArrow=none;html=1;rounded=0;entryX=0;entryY=0.5;entryDx=0;entryDy=0;exitX=1;exitY=0.5;exitDx=0;exitDy=0;" edge="1" parent="1" source="SzDZYPlU-W_V-yQMmyp6-10" target="ijqsLMtZJYYX7BfIld0q-31">
          <mxGeometry width="50" height="50" relative="1" as="geometry">
            <mxPoint x="830" y="-302.71" as="sourcePoint" />
            <mxPoint x="1070" y="-327.71" as="targetPoint" />
          </mxGeometry>
        </mxCell>
        <mxCell id="ijqsLMtZJYYX7BfIld0q-34" value="" style="endArrow=none;dashed=1;html=1;rounded=0;" edge="1" parent="1">
          <mxGeometry width="50" height="50" relative="1" as="geometry">
            <mxPoint x="1104.58" y="-277.71000000000004" as="sourcePoint" />
            <mxPoint x="1175.4199999999998" y="-277.71000000000004" as="targetPoint" />
          </mxGeometry>
        </mxCell>
        <mxCell id="ijqsLMtZJYYX7BfIld0q-36" value="ارسال اولیه تمرین" style="rounded=0;whiteSpace=wrap;html=1;" vertex="1" parent="1">
          <mxGeometry x="-87.5" y="200.00000000000003" width="120" height="60" as="geometry" />
        </mxCell>
        <mxCell id="ijqsLMtZJYYX7BfIld0q-37" value="ارسال کردن تمرین" style="rhombus;whiteSpace=wrap;html=1;rounded=0;shadow=0;strokeColor=default;perimeterSpacing=6;gradientColor=none;" vertex="1" parent="1">
          <mxGeometry x="-26.150000000000006" y="300.8399999999999" width="102.29" height="69.16" as="geometry" />
        </mxCell>
        <mxCell id="ijqsLMtZJYYX7BfIld0q-38" value="ارسال کردن پروژه" style="rhombus;whiteSpace=wrap;html=1;rounded=0;shadow=0;strokeColor=default;perimeterSpacing=6;gradientColor=none;" vertex="1" parent="1">
          <mxGeometry x="-332.29" y="300.8399999999999" width="102.29" height="69.16" as="geometry" />
        </mxCell>
        <mxCell id="ijqsLMtZJYYX7BfIld0q-39" value="" style="endArrow=none;html=1;rounded=0;entryX=0.75;entryY=1;entryDx=0;entryDy=0;exitX=0.511;exitY=0.112;exitDx=0;exitDy=0;exitPerimeter=0;" edge="1" parent="1" source="ijqsLMtZJYYX7BfIld0q-37" target="ijqsLMtZJYYX7BfIld0q-36">
          <mxGeometry width="50" height="50" relative="1" as="geometry">
            <mxPoint x="-95.77000000000001" y="280" as="sourcePoint" />
            <mxPoint x="-44.226860000000244" y="276.5889599999998" as="targetPoint" />
          </mxGeometry>
        </mxCell>
        <mxCell id="ijqsLMtZJYYX7BfIld0q-40" value="۱" style="text;html=1;strokeColor=none;fillColor=none;align=center;verticalAlign=middle;whiteSpace=wrap;rounded=0;" vertex="1" parent="1">
          <mxGeometry y="399.59000000000003" width="30" height="11.25" as="geometry" />
        </mxCell>
        <mxCell id="ijqsLMtZJYYX7BfIld0q-41" value="" style="endArrow=none;html=1;rounded=0;entryX=0.75;entryY=0;entryDx=0;entryDy=0;exitX=0;exitY=1;exitDx=0;exitDy=0;" edge="1" parent="1" source="4WOXw9dbX-iEsu4_BCIR-5" target="ijqsLMtZJYYX7BfIld0q-36">
          <mxGeometry width="50" height="50" relative="1" as="geometry">
            <mxPoint x="-60" y="100" as="sourcePoint" />
            <mxPoint x="-342.57" y="150.15" as="targetPoint" />
          </mxGeometry>
        </mxCell>
        <mxCell id="ijqsLMtZJYYX7BfIld0q-42" value="" style="endArrow=none;html=1;rounded=0;entryX=0.5;entryY=0;entryDx=0;entryDy=0;exitX=0;exitY=1;exitDx=0;exitDy=0;" edge="1" parent="1" source="4WOXw9dbX-iEsu4_BCIR-3" target="ijqsLMtZJYYX7BfIld0q-36">
          <mxGeometry width="50" height="50" relative="1" as="geometry">
            <mxPoint x="-95" y="131.69" as="sourcePoint" />
            <mxPoint x="-140" y="158.69" as="targetPoint" />
          </mxGeometry>
        </mxCell>
        <mxCell id="ijqsLMtZJYYX7BfIld0q-43" value="" style="endArrow=none;html=1;rounded=0;entryX=0.25;entryY=0;entryDx=0;entryDy=0;exitX=0.5;exitY=1;exitDx=0;exitDy=0;" edge="1" parent="1" source="4WOXw9dbX-iEsu4_BCIR-1" target="ijqsLMtZJYYX7BfIld0q-36">
          <mxGeometry width="50" height="50" relative="1" as="geometry">
            <mxPoint x="-100" y="20" as="sourcePoint" />
            <mxPoint x="-121.25" y="200" as="targetPoint" />
          </mxGeometry>
        </mxCell>
        <mxCell id="ijqsLMtZJYYX7BfIld0q-44" value="ارسال نهایی تمرین" style="rounded=0;whiteSpace=wrap;html=1;" vertex="1" parent="1">
          <mxGeometry x="-340" y="110.84000000000002" width="120" height="60" as="geometry" />
        </mxCell>
        <mxCell id="ijqsLMtZJYYX7BfIld0q-45" value="انتخاب" style="rhombus;whiteSpace=wrap;html=1;rounded=0;shadow=0;strokeColor=default;perimeterSpacing=6;gradientColor=none;" vertex="1" parent="1">
          <mxGeometry x="-331.15" y="195.4199999999999" width="102.29" height="69.16" as="geometry" />
        </mxCell>
        <mxCell id="ijqsLMtZJYYX7BfIld0q-46" value="" style="endArrow=none;html=1;rounded=0;exitX=0.5;exitY=1;exitDx=0;exitDy=0;entryX=0.511;entryY=0.091;entryDx=0;entryDy=0;entryPerimeter=0;" edge="1" parent="1" source="ijqsLMtZJYYX7BfIld0q-44" target="ijqsLMtZJYYX7BfIld0q-45">
          <mxGeometry width="50" height="50" relative="1" as="geometry">
            <mxPoint x="-199" y="113" as="sourcePoint" />
            <mxPoint x="-200" y="40" as="targetPoint" />
          </mxGeometry>
        </mxCell>
        <mxCell id="ijqsLMtZJYYX7BfIld0q-47" value="" style="endArrow=none;html=1;rounded=0;entryX=0.935;entryY=0.488;entryDx=0;entryDy=0;entryPerimeter=0;exitX=0;exitY=0.5;exitDx=0;exitDy=0;" edge="1" parent="1" source="ijqsLMtZJYYX7BfIld0q-36" target="ijqsLMtZJYYX7BfIld0q-45">
          <mxGeometry width="50" height="50" relative="1" as="geometry">
            <mxPoint x="-68.71000000000001" y="353" as="sourcePoint" />
            <mxPoint x="-167.71" y="280" as="targetPoint" />
          </mxGeometry>
        </mxCell>
        <mxCell id="ijqsLMtZJYYX7BfIld0q-48" value="n" style="text;html=1;strokeColor=none;fillColor=none;align=center;verticalAlign=middle;whiteSpace=wrap;rounded=0;" vertex="1" parent="1">
          <mxGeometry x="-140" y="204.58000000000004" width="40" height="20" as="geometry" />
        </mxCell>
        <mxCell id="ijqsLMtZJYYX7BfIld0q-49" value="۱" style="text;html=1;strokeColor=none;fillColor=none;align=center;verticalAlign=middle;whiteSpace=wrap;rounded=0;" vertex="1" parent="1">
          <mxGeometry x="-280" y="179.79000000000002" width="30" height="11.25" as="geometry" />
        </mxCell>
        <mxCell id="ijqsLMtZJYYX7BfIld0q-50" value="دارد" style="rhombus;whiteSpace=wrap;html=1;rounded=0;shadow=0;strokeColor=default;perimeterSpacing=6;gradientColor=none;" vertex="1" parent="1">
          <mxGeometry x="-332.29" y="30.629999999999885" width="102.29" height="69.16" as="geometry" />
        </mxCell>
        <mxCell id="ijqsLMtZJYYX7BfIld0q-52" value="" style="endArrow=none;html=1;rounded=0;exitX=0.5;exitY=0;exitDx=0;exitDy=0;entryX=0.512;entryY=0.905;entryDx=0;entryDy=0;entryPerimeter=0;" edge="1" parent="1" source="ijqsLMtZJYYX7BfIld0q-44" target="ijqsLMtZJYYX7BfIld0q-50">
          <mxGeometry width="50" height="50" relative="1" as="geometry">
            <mxPoint x="-420" y="170.84" as="sourcePoint" />
            <mxPoint x="-419" y="227.84" as="targetPoint" />
          </mxGeometry>
        </mxCell>
        <mxCell id="ijqsLMtZJYYX7BfIld0q-53" value="۱" style="text;html=1;strokeColor=none;fillColor=none;align=center;verticalAlign=middle;whiteSpace=wrap;rounded=0;" vertex="1" parent="1">
          <mxGeometry x="-280" y="8.750000000000028" width="30" height="11.25" as="geometry" />
        </mxCell>
        <mxCell id="ijqsLMtZJYYX7BfIld0q-54" value="n" style="text;html=1;strokeColor=none;fillColor=none;align=center;verticalAlign=middle;whiteSpace=wrap;rounded=0;" vertex="1" parent="1">
          <mxGeometry x="-280" y="90.84000000000005" width="40" height="20" as="geometry" />
        </mxCell>
        <mxCell id="ijqsLMtZJYYX7BfIld0q-57" value="n" style="text;html=1;strokeColor=none;fillColor=none;align=center;verticalAlign=middle;whiteSpace=wrap;rounded=0;" vertex="1" parent="1">
          <mxGeometry x="-540" y="250.84" width="40" height="20" as="geometry" />
        </mxCell>
        <mxCell id="ijqsLMtZJYYX7BfIld0q-58" value="&lt;u&gt;ساعت&lt;/u&gt;" style="ellipse;whiteSpace=wrap;html=1;" vertex="1" parent="1">
          <mxGeometry x="-907.5" y="-100.00000000000001" width="120" height="80" as="geometry" />
        </mxCell>
        <mxCell id="ijqsLMtZJYYX7BfIld0q-59" value="&lt;u&gt;تاریخ&lt;/u&gt;" style="ellipse;whiteSpace=wrap;html=1;" vertex="1" parent="1">
          <mxGeometry x="-787.5" y="-100.00000000000001" width="120" height="80" as="geometry" />
        </mxCell>
        <mxCell id="ijqsLMtZJYYX7BfIld0q-60" value="نمره" style="ellipse;whiteSpace=wrap;html=1;" vertex="1" parent="1">
          <mxGeometry x="-780" y="-1.4210854715202004e-14" width="120" height="80" as="geometry" />
        </mxCell>
        <mxCell id="ijqsLMtZJYYX7BfIld0q-61" value="کد شرکت کننده" style="ellipse;whiteSpace=wrap;html=1;" vertex="1" parent="1">
          <mxGeometry x="-730" y="85.18999999999997" width="120" height="80" as="geometry" />
        </mxCell>
        <mxCell id="ijqsLMtZJYYX7BfIld0q-62" value="" style="endArrow=none;html=1;rounded=0;" edge="1" parent="1">
          <mxGeometry width="50" height="50" relative="1" as="geometry">
            <mxPoint x="-907.5" y="-20.000000000000014" as="sourcePoint" />
            <mxPoint x="-667.5" y="-20.000000000000014" as="targetPoint" />
          </mxGeometry>
        </mxCell>
        <mxCell id="ijqsLMtZJYYX7BfIld0q-63" value="" style="endArrow=none;dashed=1;html=1;rounded=0;" edge="1" parent="1">
          <mxGeometry width="50" height="50" relative="1" as="geometry">
            <mxPoint x="-705.4200000000001" y="139.99999999999997" as="sourcePoint" />
            <mxPoint x="-634.5799999999999" y="139.99999999999997" as="targetPoint" />
          </mxGeometry>
        </mxCell>
        <mxCell id="ijqsLMtZJYYX7BfIld0q-64" value="ارسال اولیه پروژه" style="rounded=0;whiteSpace=wrap;html=1;" vertex="1" parent="1">
          <mxGeometry x="-847.5" y="179.99999999999997" width="120" height="60" as="geometry" />
        </mxCell>
        <mxCell id="ijqsLMtZJYYX7BfIld0q-65" value="" style="endArrow=none;html=1;rounded=0;entryX=1;entryY=0.5;entryDx=0;entryDy=0;exitX=0.089;exitY=0.517;exitDx=0;exitDy=0;exitPerimeter=0;" edge="1" parent="1" source="ijqsLMtZJYYX7BfIld0q-38" target="ijqsLMtZJYYX7BfIld0q-64">
          <mxGeometry width="50" height="50" relative="1" as="geometry">
            <mxPoint x="-397.5" y="312.84" as="sourcePoint" />
            <mxPoint x="-421" y="268.84" as="targetPoint" />
          </mxGeometry>
        </mxCell>
        <mxCell id="ijqsLMtZJYYX7BfIld0q-66" value="" style="endArrow=none;html=1;rounded=0;entryX=0.75;entryY=0;entryDx=0;entryDy=0;exitX=0;exitY=1;exitDx=0;exitDy=0;" edge="1" parent="1" source="ijqsLMtZJYYX7BfIld0q-61" target="ijqsLMtZJYYX7BfIld0q-64">
          <mxGeometry width="50" height="50" relative="1" as="geometry">
            <mxPoint x="-820" y="79.99999999999997" as="sourcePoint" />
            <mxPoint x="-1102.57" y="130.14999999999995" as="targetPoint" />
          </mxGeometry>
        </mxCell>
        <mxCell id="ijqsLMtZJYYX7BfIld0q-67" value="" style="endArrow=none;html=1;rounded=0;entryX=0.5;entryY=0;entryDx=0;entryDy=0;exitX=0;exitY=1;exitDx=0;exitDy=0;" edge="1" parent="1" source="ijqsLMtZJYYX7BfIld0q-60" target="ijqsLMtZJYYX7BfIld0q-64">
          <mxGeometry width="50" height="50" relative="1" as="geometry">
            <mxPoint x="-855" y="111.68999999999997" as="sourcePoint" />
            <mxPoint x="-900" y="138.68999999999997" as="targetPoint" />
          </mxGeometry>
        </mxCell>
        <mxCell id="ijqsLMtZJYYX7BfIld0q-68" value="" style="endArrow=none;html=1;rounded=0;entryX=0.25;entryY=0;entryDx=0;entryDy=0;exitX=0.5;exitY=1;exitDx=0;exitDy=0;" edge="1" parent="1" source="ijqsLMtZJYYX7BfIld0q-58" target="ijqsLMtZJYYX7BfIld0q-64">
          <mxGeometry width="50" height="50" relative="1" as="geometry">
            <mxPoint x="-860" y="-1.4210854715202004e-14" as="sourcePoint" />
            <mxPoint x="-881.25" y="179.99999999999997" as="targetPoint" />
          </mxGeometry>
        </mxCell>
        <mxCell id="ijqsLMtZJYYX7BfIld0q-79" value="" style="endArrow=none;html=1;rounded=0;exitX=0.25;exitY=0;exitDx=0;exitDy=0;entryX=0.934;entryY=0.531;entryDx=0;entryDy=0;entryPerimeter=0;" edge="1" parent="1" source="SzDZYPlU-W_V-yQMmyp6-42" target="ijqsLMtZJYYX7BfIld0q-38">
          <mxGeometry width="50" height="50" relative="1" as="geometry">
            <mxPoint x="-119.56" y="416.88" as="sourcePoint" />
            <mxPoint x="-120" y="370" as="targetPoint" />
          </mxGeometry>
        </mxCell>
        <mxCell id="ijqsLMtZJYYX7BfIld0q-80" value="۱" style="text;html=1;strokeColor=none;fillColor=none;align=center;verticalAlign=middle;whiteSpace=wrap;rounded=0;" vertex="1" parent="1">
          <mxGeometry x="-108.75" y="375.59000000000003" width="42.5" height="21.25" as="geometry" />
        </mxCell>
        <mxCell id="ijqsLMtZJYYX7BfIld0q-82" value="&lt;u&gt;ساعت&lt;/u&gt;" style="ellipse;whiteSpace=wrap;html=1;" vertex="1" parent="1">
          <mxGeometry x="-610" y="-30.000000000000014" width="120" height="80" as="geometry" />
        </mxCell>
        <mxCell id="ijqsLMtZJYYX7BfIld0q-83" value="&lt;u&gt;تاریخ&lt;/u&gt;" style="ellipse;whiteSpace=wrap;html=1;" vertex="1" parent="1">
          <mxGeometry x="-490" y="-30.000000000000014" width="120" height="80" as="geometry" />
        </mxCell>
        <mxCell id="ijqsLMtZJYYX7BfIld0q-84" value="نمره" style="ellipse;whiteSpace=wrap;html=1;" vertex="1" parent="1">
          <mxGeometry x="-530" y="59.999999999999986" width="120" height="80" as="geometry" />
        </mxCell>
        <mxCell id="ijqsLMtZJYYX7BfIld0q-85" value="کد شرکت کننده" style="ellipse;whiteSpace=wrap;html=1;" vertex="1" parent="1">
          <mxGeometry x="-490" y="150.83999999999997" width="120" height="80" as="geometry" />
        </mxCell>
        <mxCell id="ijqsLMtZJYYX7BfIld0q-86" value="" style="endArrow=none;html=1;rounded=0;" edge="1" parent="1">
          <mxGeometry width="50" height="50" relative="1" as="geometry">
            <mxPoint x="-610" y="49.999999999999986" as="sourcePoint" />
            <mxPoint x="-370" y="49.999999999999986" as="targetPoint" />
          </mxGeometry>
        </mxCell>
        <mxCell id="ijqsLMtZJYYX7BfIld0q-87" value="" style="endArrow=none;dashed=1;html=1;rounded=0;" edge="1" parent="1">
          <mxGeometry width="50" height="50" relative="1" as="geometry">
            <mxPoint x="-465.4200000000001" y="204.57999999999998" as="sourcePoint" />
            <mxPoint x="-394.5799999999999" y="204.57999999999998" as="targetPoint" />
          </mxGeometry>
        </mxCell>
        <mxCell id="ijqsLMtZJYYX7BfIld0q-89" value="" style="endArrow=none;html=1;rounded=0;entryX=1;entryY=1;entryDx=0;entryDy=0;exitX=0;exitY=0.75;exitDx=0;exitDy=0;" edge="1" parent="1" source="ijqsLMtZJYYX7BfIld0q-44" target="ijqsLMtZJYYX7BfIld0q-84">
          <mxGeometry width="50" height="50" relative="1" as="geometry">
            <mxPoint x="-517.7064068711932" y="198.8842712474619" as="sourcePoint" />
            <mxPoint x="-534.78" y="291.01" as="targetPoint" />
          </mxGeometry>
        </mxCell>
        <mxCell id="ijqsLMtZJYYX7BfIld0q-90" value="" style="endArrow=none;html=1;rounded=0;entryX=0;entryY=0.25;entryDx=0;entryDy=0;exitX=0.5;exitY=1;exitDx=0;exitDy=0;" edge="1" parent="1" source="ijqsLMtZJYYX7BfIld0q-83" target="ijqsLMtZJYYX7BfIld0q-44">
          <mxGeometry width="50" height="50" relative="1" as="geometry">
            <mxPoint x="-602.5" y="39.999999999999986" as="sourcePoint" />
            <mxPoint x="-559.5" y="220.41" as="targetPoint" />
          </mxGeometry>
        </mxCell>
        <mxCell id="ijqsLMtZJYYX7BfIld0q-91" value="" style="endArrow=none;html=1;rounded=0;exitX=0;exitY=1;exitDx=0;exitDy=0;" edge="1" parent="1" source="ijqsLMtZJYYX7BfIld0q-44">
          <mxGeometry width="50" height="50" relative="1" as="geometry">
            <mxPoint x="-512.5" y="233.8" as="sourcePoint" />
            <mxPoint x="-370" y="191" as="targetPoint" />
          </mxGeometry>
        </mxCell>
        <mxCell id="ijqsLMtZJYYX7BfIld0q-93" value="" style="endArrow=none;html=1;rounded=0;exitX=0.501;exitY=0.113;exitDx=0;exitDy=0;exitPerimeter=0;entryX=0.5;entryY=1;entryDx=0;entryDy=0;" edge="1" parent="1" source="ijqsLMtZJYYX7BfIld0q-98" target="SzDZYPlU-W_V-yQMmyp6-4">
          <mxGeometry width="50" height="50" relative="1" as="geometry">
            <mxPoint x="-990" y="-100.42" as="sourcePoint" />
            <mxPoint x="-810" y="-220" as="targetPoint" />
          </mxGeometry>
        </mxCell>
        <mxCell id="ijqsLMtZJYYX7BfIld0q-94" value="ارسال نهایی پروژه" style="rounded=0;whiteSpace=wrap;html=1;" vertex="1" parent="1">
          <mxGeometry x="-1050" y="-9.579999999999998" width="120" height="60" as="geometry" />
        </mxCell>
        <mxCell id="ijqsLMtZJYYX7BfIld0q-95" value="انتخاب" style="rhombus;whiteSpace=wrap;html=1;rounded=0;shadow=0;strokeColor=default;perimeterSpacing=6;gradientColor=none;" vertex="1" parent="1">
          <mxGeometry x="-1071.15" y="165.41999999999993" width="102.29" height="69.16" as="geometry" />
        </mxCell>
        <mxCell id="ijqsLMtZJYYX7BfIld0q-96" value="" style="endArrow=none;html=1;rounded=0;exitX=0.5;exitY=1;exitDx=0;exitDy=0;entryX=0.506;entryY=0.084;entryDx=0;entryDy=0;entryPerimeter=0;" edge="1" parent="1" source="ijqsLMtZJYYX7BfIld0q-94" target="ijqsLMtZJYYX7BfIld0q-95">
          <mxGeometry width="50" height="50" relative="1" as="geometry">
            <mxPoint x="-909" y="-7.42000000000003" as="sourcePoint" />
            <mxPoint x="-1020" y="170" as="targetPoint" />
          </mxGeometry>
        </mxCell>
        <mxCell id="ijqsLMtZJYYX7BfIld0q-97" value="۱" style="text;html=1;strokeColor=none;fillColor=none;align=center;verticalAlign=middle;whiteSpace=wrap;rounded=0;" vertex="1" parent="1">
          <mxGeometry x="-1005" y="93.94000000000005" width="30" height="11.25" as="geometry" />
        </mxCell>
        <mxCell id="ijqsLMtZJYYX7BfIld0q-98" value="دارد" style="rhombus;whiteSpace=wrap;html=1;rounded=0;shadow=0;strokeColor=default;perimeterSpacing=6;gradientColor=none;" vertex="1" parent="1">
          <mxGeometry x="-952" y="-188.95000000000013" width="102.29" height="69.16" as="geometry" />
        </mxCell>
        <mxCell id="ijqsLMtZJYYX7BfIld0q-99" value="" style="endArrow=none;html=1;rounded=0;exitX=0.5;exitY=0;exitDx=0;exitDy=0;entryX=0.512;entryY=0.905;entryDx=0;entryDy=0;entryPerimeter=0;" edge="1" parent="1" source="ijqsLMtZJYYX7BfIld0q-94" target="ijqsLMtZJYYX7BfIld0q-98">
          <mxGeometry width="50" height="50" relative="1" as="geometry">
            <mxPoint x="-1130" y="50.42" as="sourcePoint" />
            <mxPoint x="-1129" y="107.42" as="targetPoint" />
          </mxGeometry>
        </mxCell>
        <mxCell id="ijqsLMtZJYYX7BfIld0q-100" value="۱" style="text;html=1;strokeColor=none;fillColor=none;align=center;verticalAlign=middle;whiteSpace=wrap;rounded=0;" vertex="1" parent="1">
          <mxGeometry x="-880" y="-258.96" width="30" height="11.25" as="geometry" />
        </mxCell>
        <mxCell id="ijqsLMtZJYYX7BfIld0q-101" value="n" style="text;html=1;strokeColor=none;fillColor=none;align=center;verticalAlign=middle;whiteSpace=wrap;rounded=0;" vertex="1" parent="1">
          <mxGeometry x="-970" y="-79.99999999999994" width="40" height="20" as="geometry" />
        </mxCell>
        <mxCell id="ijqsLMtZJYYX7BfIld0q-103" value="&lt;u&gt;ساعت&lt;/u&gt;" style="ellipse;whiteSpace=wrap;html=1;" vertex="1" parent="1">
          <mxGeometry x="-1320" y="-150.42000000000002" width="120" height="80" as="geometry" />
        </mxCell>
        <mxCell id="ijqsLMtZJYYX7BfIld0q-104" value="&lt;u&gt;تاریخ&lt;/u&gt;" style="ellipse;whiteSpace=wrap;html=1;" vertex="1" parent="1">
          <mxGeometry x="-1200" y="-150.42000000000002" width="120" height="80" as="geometry" />
        </mxCell>
        <mxCell id="ijqsLMtZJYYX7BfIld0q-105" value="نمره" style="ellipse;whiteSpace=wrap;html=1;" vertex="1" parent="1">
          <mxGeometry x="-1240" y="-60.42000000000003" width="120" height="80" as="geometry" />
        </mxCell>
        <mxCell id="ijqsLMtZJYYX7BfIld0q-106" value="کد شرکت کننده" style="ellipse;whiteSpace=wrap;html=1;" vertex="1" parent="1">
          <mxGeometry x="-1200" y="30.42" width="120" height="80" as="geometry" />
        </mxCell>
        <mxCell id="ijqsLMtZJYYX7BfIld0q-107" value="" style="endArrow=none;html=1;rounded=0;" edge="1" parent="1">
          <mxGeometry width="50" height="50" relative="1" as="geometry">
            <mxPoint x="-1320" y="-70.42000000000003" as="sourcePoint" />
            <mxPoint x="-1080" y="-70.42000000000003" as="targetPoint" />
          </mxGeometry>
        </mxCell>
        <mxCell id="ijqsLMtZJYYX7BfIld0q-108" value="" style="endArrow=none;dashed=1;html=1;rounded=0;" edge="1" parent="1">
          <mxGeometry width="50" height="50" relative="1" as="geometry">
            <mxPoint x="-1175.42" y="84.16000000000001" as="sourcePoint" />
            <mxPoint x="-1104.58" y="84.16000000000001" as="targetPoint" />
          </mxGeometry>
        </mxCell>
        <mxCell id="ijqsLMtZJYYX7BfIld0q-109" value="" style="endArrow=none;html=1;rounded=0;entryX=1;entryY=1;entryDx=0;entryDy=0;exitX=0;exitY=0.75;exitDx=0;exitDy=0;" edge="1" parent="1" source="ijqsLMtZJYYX7BfIld0q-94" target="ijqsLMtZJYYX7BfIld0q-105">
          <mxGeometry width="50" height="50" relative="1" as="geometry">
            <mxPoint x="-1227.7064068711932" y="78.4642712474619" as="sourcePoint" />
            <mxPoint x="-1244.78" y="170.58999999999997" as="targetPoint" />
          </mxGeometry>
        </mxCell>
        <mxCell id="ijqsLMtZJYYX7BfIld0q-110" value="" style="endArrow=none;html=1;rounded=0;entryX=0;entryY=0.25;entryDx=0;entryDy=0;exitX=0.5;exitY=1;exitDx=0;exitDy=0;" edge="1" parent="1" source="ijqsLMtZJYYX7BfIld0q-104" target="ijqsLMtZJYYX7BfIld0q-94">
          <mxGeometry width="50" height="50" relative="1" as="geometry">
            <mxPoint x="-1312.5" y="-80.42000000000003" as="sourcePoint" />
            <mxPoint x="-1269.5" y="99.99" as="targetPoint" />
          </mxGeometry>
        </mxCell>
        <mxCell id="ijqsLMtZJYYX7BfIld0q-111" value="" style="endArrow=none;html=1;rounded=0;exitX=0;exitY=1;exitDx=0;exitDy=0;" edge="1" parent="1" source="ijqsLMtZJYYX7BfIld0q-94">
          <mxGeometry width="50" height="50" relative="1" as="geometry">
            <mxPoint x="-1222.5" y="113.38000000000004" as="sourcePoint" />
            <mxPoint x="-1080" y="70.57999999999997" as="targetPoint" />
          </mxGeometry>
        </mxCell>
        <mxCell id="ijqsLMtZJYYX7BfIld0q-112" value="" style="endArrow=none;html=1;rounded=0;entryX=0.935;entryY=0.542;entryDx=0;entryDy=0;exitX=0;exitY=0.5;exitDx=0;exitDy=0;entryPerimeter=0;" edge="1" parent="1" source="ijqsLMtZJYYX7BfIld0q-64" target="ijqsLMtZJYYX7BfIld0q-95">
          <mxGeometry width="50" height="50" relative="1" as="geometry">
            <mxPoint x="-882" y="308" as="sourcePoint" />
            <mxPoint x="-970" y="280" as="targetPoint" />
          </mxGeometry>
        </mxCell>
        <mxCell id="ijqsLMtZJYYX7BfIld0q-113" value="n" style="text;html=1;strokeColor=none;fillColor=none;align=center;verticalAlign=middle;whiteSpace=wrap;rounded=0;" vertex="1" parent="1">
          <mxGeometry x="-930" y="184.58000000000007" width="40" height="20" as="geometry" />
        </mxCell>
        <mxCell id="ijqsLMtZJYYX7BfIld0q-116" value="" style="endArrow=none;dashed=1;html=1;rounded=0;" edge="1" parent="1">
          <mxGeometry width="50" height="50" relative="1" as="geometry">
            <mxPoint x="-1330" y="-80" as="sourcePoint" />
            <mxPoint x="-1070" y="-81" as="targetPoint" />
          </mxGeometry>
        </mxCell>
        <mxCell id="ijqsLMtZJYYX7BfIld0q-117" value="" style="endArrow=none;dashed=1;html=1;rounded=0;" edge="1" parent="1">
          <mxGeometry width="50" height="50" relative="1" as="geometry">
            <mxPoint x="-612.5" y="39.47" as="sourcePoint" />
            <mxPoint x="-370" y="39.47" as="targetPoint" />
          </mxGeometry>
        </mxCell>
        <mxCell id="ijqsLMtZJYYX7BfIld0q-119" value="&lt;u&gt;شناسه تمرین&lt;/u&gt;" style="ellipse;whiteSpace=wrap;html=1;" vertex="1" parent="1">
          <mxGeometry x="-260" y="-213.33" width="120" height="80" as="geometry" />
        </mxCell>
        <mxCell id="ijqsLMtZJYYX7BfIld0q-120" value="" style="endArrow=none;html=1;rounded=0;entryX=0.5;entryY=1;entryDx=0;entryDy=0;exitX=0.62;exitY=-0.004;exitDx=0;exitDy=0;exitPerimeter=0;" edge="1" parent="1" source="SzDZYPlU-W_V-yQMmyp6-3" target="ijqsLMtZJYYX7BfIld0q-119">
          <mxGeometry width="50" height="50" relative="1" as="geometry">
            <mxPoint x="-260" y="-70" as="sourcePoint" />
            <mxPoint x="-207" y="-115" as="targetPoint" />
          </mxGeometry>
        </mxCell>
        <mxCell id="ijqsLMtZJYYX7BfIld0q-121" value="موضوع" style="ellipse;whiteSpace=wrap;html=1;" vertex="1" parent="1">
          <mxGeometry x="-940" y="-510" width="120" height="80" as="geometry" />
        </mxCell>
        <mxCell id="ijqsLMtZJYYX7BfIld0q-122" value="" style="endArrow=none;html=1;rounded=0;entryX=0.5;entryY=1;entryDx=0;entryDy=0;exitX=0.25;exitY=0;exitDx=0;exitDy=0;" edge="1" parent="1" source="SzDZYPlU-W_V-yQMmyp6-4" target="ijqsLMtZJYYX7BfIld0q-121">
          <mxGeometry width="50" height="50" relative="1" as="geometry">
            <mxPoint x="-750" y="-330" as="sourcePoint" />
            <mxPoint x="-810" y="-430" as="targetPoint" />
          </mxGeometry>
        </mxCell>
        <mxCell id="ijqsLMtZJYYX7BfIld0q-123" value="&lt;u&gt;شناسه پروژه&lt;/u&gt;" style="ellipse;whiteSpace=wrap;html=1;" vertex="1" parent="1">
          <mxGeometry x="-810" y="-510" width="120" height="80" as="geometry" />
        </mxCell>
        <mxCell id="ijqsLMtZJYYX7BfIld0q-124" value="" style="endArrow=none;html=1;rounded=0;entryX=0.348;entryY=1.013;entryDx=0;entryDy=0;exitX=0.5;exitY=0;exitDx=0;exitDy=0;entryPerimeter=0;" edge="1" parent="1" source="SzDZYPlU-W_V-yQMmyp6-4" target="ijqsLMtZJYYX7BfIld0q-123">
          <mxGeometry width="50" height="50" relative="1" as="geometry">
            <mxPoint x="-680" y="-285.71" as="sourcePoint" />
            <mxPoint x="-700" y="-377.71" as="targetPoint" />
          </mxGeometry>
        </mxCell>
        <mxCell id="ijqsLMtZJYYX7BfIld0q-125" value="شناسه پروژه" style="ellipse;whiteSpace=wrap;html=1;" vertex="1" parent="1">
          <mxGeometry x="-641.14" y="-700" width="120" height="80" as="geometry" />
        </mxCell>
        <mxCell id="ijqsLMtZJYYX7BfIld0q-126" value="" style="endArrow=none;dashed=1;html=1;rounded=0;" edge="1" parent="1">
          <mxGeometry width="50" height="50" relative="1" as="geometry">
            <mxPoint x="-616.5600000000001" y="-650" as="sourcePoint" />
            <mxPoint x="-545.7199999999999" y="-650" as="targetPoint" />
          </mxGeometry>
        </mxCell>
        <mxCell id="ijqsLMtZJYYX7BfIld0q-127" value="شناسه تمرین" style="ellipse;whiteSpace=wrap;html=1;" vertex="1" parent="1">
          <mxGeometry x="-690" y="-618.75" width="120" height="80" as="geometry" />
        </mxCell>
        <mxCell id="ijqsLMtZJYYX7BfIld0q-128" value="" style="endArrow=none;dashed=1;html=1;rounded=0;" edge="1" parent="1">
          <mxGeometry width="50" height="50" relative="1" as="geometry">
            <mxPoint x="-665.4200000000001" y="-568.75" as="sourcePoint" />
            <mxPoint x="-594.5799999999999" y="-568.75" as="targetPoint" />
          </mxGeometry>
        </mxCell>
        <mxCell id="ijqsLMtZJYYX7BfIld0q-129" value="شناسه آزمون" style="ellipse;whiteSpace=wrap;html=1;" vertex="1" parent="1">
          <mxGeometry x="-667.5" y="-530" width="120" height="80" as="geometry" />
        </mxCell>
        <mxCell id="ijqsLMtZJYYX7BfIld0q-130" value="" style="endArrow=none;dashed=1;html=1;rounded=0;" edge="1" parent="1">
          <mxGeometry width="50" height="50" relative="1" as="geometry">
            <mxPoint x="-642.9200000000001" y="-476.1" as="sourcePoint" />
            <mxPoint x="-572.0799999999999" y="-476.1" as="targetPoint" />
          </mxGeometry>
        </mxCell>
        <mxCell id="ijqsLMtZJYYX7BfIld0q-131" value="شناسه رئیس" style="ellipse;whiteSpace=wrap;html=1;" vertex="1" parent="1">
          <mxGeometry x="-590" y="-457.71" width="120" height="80" as="geometry" />
        </mxCell>
        <mxCell id="ijqsLMtZJYYX7BfIld0q-132" value="" style="endArrow=none;dashed=1;html=1;rounded=0;" edge="1" parent="1">
          <mxGeometry width="50" height="50" relative="1" as="geometry">
            <mxPoint x="-565.4200000000001" y="-403.81" as="sourcePoint" />
            <mxPoint x="-494.5799999999999" y="-403.81" as="targetPoint" />
          </mxGeometry>
        </mxCell>
        <mxCell id="ijqsLMtZJYYX7BfIld0q-133" value="" style="endArrow=none;html=1;rounded=0;entryX=0.958;entryY=0.663;entryDx=0;entryDy=0;exitX=0;exitY=0;exitDx=0;exitDy=0;entryPerimeter=0;" edge="1" parent="1" source="SzDZYPlU-W_V-yQMmyp6-9" target="ijqsLMtZJYYX7BfIld0q-125">
          <mxGeometry width="50" height="50" relative="1" as="geometry">
            <mxPoint x="-439" y="-487" as="sourcePoint" />
            <mxPoint x="-560" y="-573" as="targetPoint" />
          </mxGeometry>
        </mxCell>
        <mxCell id="ijqsLMtZJYYX7BfIld0q-134" value="" style="endArrow=none;html=1;rounded=0;entryX=1;entryY=0.5;entryDx=0;entryDy=0;exitX=0;exitY=0.25;exitDx=0;exitDy=0;" edge="1" parent="1" source="SzDZYPlU-W_V-yQMmyp6-9" target="ijqsLMtZJYYX7BfIld0q-127">
          <mxGeometry width="50" height="50" relative="1" as="geometry">
            <mxPoint x="-384" y="-486.5" as="sourcePoint" />
            <mxPoint x="-570" y="-573.5" as="targetPoint" />
          </mxGeometry>
        </mxCell>
        <mxCell id="ijqsLMtZJYYX7BfIld0q-135" value="" style="endArrow=none;html=1;rounded=0;entryX=1;entryY=0.5;entryDx=0;entryDy=0;exitX=0;exitY=0.5;exitDx=0;exitDy=0;" edge="1" parent="1" source="SzDZYPlU-W_V-yQMmyp6-9" target="ijqsLMtZJYYX7BfIld0q-129">
          <mxGeometry width="50" height="50" relative="1" as="geometry">
            <mxPoint x="-350" y="-500" as="sourcePoint" />
            <mxPoint x="-580" y="-534" as="targetPoint" />
          </mxGeometry>
        </mxCell>
        <mxCell id="ijqsLMtZJYYX7BfIld0q-136" value="" style="endArrow=none;html=1;rounded=0;entryX=1;entryY=0;entryDx=0;entryDy=0;exitX=0;exitY=0.75;exitDx=0;exitDy=0;" edge="1" parent="1" source="SzDZYPlU-W_V-yQMmyp6-9" target="ijqsLMtZJYYX7BfIld0q-131">
          <mxGeometry width="50" height="50" relative="1" as="geometry">
            <mxPoint x="-370" y="-490" as="sourcePoint" />
            <mxPoint x="-577" y="-450" as="targetPoint" />
          </mxGeometry>
        </mxCell>
        <mxCell id="ijqsLMtZJYYX7BfIld0q-137" value="کد شرکت" style="ellipse;whiteSpace=wrap;html=1;" vertex="1" parent="1">
          <mxGeometry x="513.43" y="-347.7100000000001" width="120" height="80" as="geometry" />
        </mxCell>
        <mxCell id="ijqsLMtZJYYX7BfIld0q-138" value="" style="endArrow=none;dashed=1;html=1;rounded=0;" edge="1" parent="1">
          <mxGeometry width="50" height="50" relative="1" as="geometry">
            <mxPoint x="844.5799999999998" y="100.31000000000002" as="sourcePoint" />
            <mxPoint x="915.42" y="100.31000000000002" as="targetPoint" />
          </mxGeometry>
        </mxCell>
        <mxCell id="ijqsLMtZJYYX7BfIld0q-140" value="" style="endArrow=none;dashed=1;html=1;rounded=0;" edge="1" parent="1">
          <mxGeometry width="50" height="50" relative="1" as="geometry">
            <mxPoint x="538.0099999999998" y="-296.99000000000007" as="sourcePoint" />
            <mxPoint x="608.8499999999999" y="-296.99000000000007" as="targetPoint" />
          </mxGeometry>
        </mxCell>
        <mxCell id="ijqsLMtZJYYX7BfIld0q-143" value="شناسه قبول شدگان" style="ellipse;whiteSpace=wrap;html=1;" vertex="1" parent="1">
          <mxGeometry x="391.15" y="-310" width="120" height="80" as="geometry" />
        </mxCell>
        <mxCell id="ijqsLMtZJYYX7BfIld0q-144" value="" style="endArrow=none;dashed=1;html=1;rounded=0;" edge="1" parent="1">
          <mxGeometry width="50" height="50" relative="1" as="geometry">
            <mxPoint x="415.7299999999998" y="-258.85" as="sourcePoint" />
            <mxPoint x="486.56999999999994" y="-258.85" as="targetPoint" />
          </mxGeometry>
        </mxCell>
        <mxCell id="ijqsLMtZJYYX7BfIld0q-146" value="" style="endArrow=none;html=1;rounded=0;entryX=0.5;entryY=1;entryDx=0;entryDy=0;exitX=0.352;exitY=0.179;exitDx=0;exitDy=0;exitPerimeter=0;" edge="1" parent="1" source="4WOXw9dbX-iEsu4_BCIR-143" target="ijqsLMtZJYYX7BfIld0q-137">
          <mxGeometry width="50" height="50" relative="1" as="geometry">
            <mxPoint x="530" y="-160" as="sourcePoint" />
            <mxPoint x="530" y="-250" as="targetPoint" />
          </mxGeometry>
        </mxCell>
        <mxCell id="ijqsLMtZJYYX7BfIld0q-147" value="" style="endArrow=none;html=1;rounded=0;entryX=1;entryY=1;entryDx=0;entryDy=0;exitX=0.249;exitY=0.371;exitDx=0;exitDy=0;exitPerimeter=0;" edge="1" parent="1" source="4WOXw9dbX-iEsu4_BCIR-143" target="ijqsLMtZJYYX7BfIld0q-143">
          <mxGeometry width="50" height="50" relative="1" as="geometry">
            <mxPoint x="513.4300000000001" y="-130" as="sourcePoint" />
            <mxPoint x="493.43" y="-193" as="targetPoint" />
          </mxGeometry>
        </mxCell>
        <mxCell id="ijqsLMtZJYYX7BfIld0q-148" value="&lt;u&gt;شناسه مصاحبه&lt;/u&gt;" style="ellipse;whiteSpace=wrap;html=1;" vertex="1" parent="1">
          <mxGeometry x="661.15" y="-130" width="120" height="80" as="geometry" />
        </mxCell>
        <mxCell id="ijqsLMtZJYYX7BfIld0q-149" value="" style="endArrow=none;html=1;rounded=0;entryX=0.654;entryY=0.802;entryDx=0;entryDy=0;exitX=0;exitY=0;exitDx=0;exitDy=0;entryPerimeter=0;" edge="1" parent="1" source="ijqsLMtZJYYX7BfIld0q-148" target="4WOXw9dbX-iEsu4_BCIR-143">
          <mxGeometry width="50" height="50" relative="1" as="geometry">
            <mxPoint x="600" y="-66.79" as="sourcePoint" />
            <mxPoint x="513" y="-119.79" as="targetPoint" />
          </mxGeometry>
        </mxCell>
      </root>
    </mxGraphModel>
  </diagram>
</mxfile>
